<svg id="visual" viewBox="0 0 960 540" width="960" height="540" xmlns="http://www.w3.org/2000/svg" xmlns:xlink="http://www.w3.org/1999/xlink" version="1.1"><rect x="0" y="0" width="960" height="540" fill="#111"></rect><defs><linearGradient id="grad1_0" x1="43.8%" y1="0%" x2="100%" y2="100%"><stop offset="14.444444444444446%" stop-color="#4259ff" stop-opacity="1"></stop><stop offset="85.55555555555554%" stop-color="#4259ff" stop-opacity="1"></stop></linearGradient></defs><defs><linearGradient id="grad1_1" x1="43.8%" y1="0%" x2="100%" y2="100%"><stop offset="14.444444444444446%" stop-color="#4259ff" stop-opacity="1"></stop><stop offset="85.55555555555554%" stop-color="#404ed8" stop-opacity="1"></stop></linearGradient></defs><defs><linearGradient id="grad1_2" x1="43.8%" y1="0%" x2="100%" y2="100%"><stop offset="14.444444444444446%" stop-color="#3c43b3" stop-opacity="1"></stop><stop offset="85.55555555555554%" stop-color="#404ed8" stop-opacity="1"></stop></linearGradient></defs><defs><linearGradient id="grad1_3" x1="43.8%" y1="0%" x2="100%" y2="100%"><stop offset="14.444444444444446%" stop-color="#3c43b3" stop-opacity="1"></stop><stop offset="85.55555555555554%" stop-color="#37398f" stop-opacity="1"></stop></linearGradient></defs><defs><linearGradient id="grad1_4" x1="43.8%" y1="0%" x2="100%" y2="100%"><stop offset="14.444444444444446%" stop-color="#302f6d" stop-opacity="1"></stop><stop offset="85.55555555555554%" stop-color="#37398f" stop-opacity="1"></stop></linearGradient></defs><defs><linearGradient id="grad1_5" x1="43.8%" y1="0%" x2="100%" y2="100%"><stop offset="14.444444444444446%" stop-color="#302f6d" stop-opacity="1"></stop><stop offset="85.55555555555554%" stop-color="#28254c" stop-opacity="1"></stop></linearGradient></defs><defs><linearGradient id="grad1_6" x1="43.8%" y1="0%" x2="100%" y2="100%"><stop offset="14.444444444444446%" stop-color="#1e1b2e" stop-opacity="1"></stop><stop offset="85.55555555555554%" stop-color="#28254c" stop-opacity="1"></stop></linearGradient></defs><defs><linearGradient id="grad1_7" x1="43.8%" y1="0%" x2="100%" y2="100%"><stop offset="14.444444444444446%" stop-color="#1e1b2e" stop-opacity="1"></stop><stop offset="85.55555555555554%" stop-color="#111111" stop-opacity="1"></stop></linearGradient></defs><defs><linearGradient id="grad2_0" x1="0%" y1="0%" x2="56.3%" y2="100%"><stop offset="14.444444444444446%" stop-color="#4259ff" stop-opacity="1"></stop><stop offset="85.55555555555554%" stop-color="#4259ff" stop-opacity="1"></stop></linearGradient></defs><defs><linearGradient id="grad2_1" x1="0%" y1="0%" x2="56.3%" y2="100%"><stop offset="14.444444444444446%" stop-color="#404ed8" stop-opacity="1"></stop><stop offset="85.55555555555554%" stop-color="#4259ff" stop-opacity="1"></stop></linearGradient></defs><defs><linearGradient id="grad2_2" x1="0%" y1="0%" x2="56.3%" y2="100%"><stop offset="14.444444444444446%" stop-color="#404ed8" stop-opacity="1"></stop><stop offset="85.55555555555554%" stop-color="#3c43b3" stop-opacity="1"></stop></linearGradient></defs><defs><linearGradient id="grad2_3" x1="0%" y1="0%" x2="56.3%" y2="100%"><stop offset="14.444444444444446%" stop-color="#37398f" stop-opacity="1"></stop><stop offset="85.55555555555554%" stop-color="#3c43b3" stop-opacity="1"></stop></linearGradient></defs><defs><linearGradient id="grad2_4" x1="0%" y1="0%" x2="56.3%" y2="100%"><stop offset="14.444444444444446%" stop-color="#37398f" stop-opacity="1"></stop><stop offset="85.55555555555554%" stop-color="#302f6d" stop-opacity="1"></stop></linearGradient></defs><defs><linearGradient id="grad2_5" x1="0%" y1="0%" x2="56.3%" y2="100%"><stop offset="14.444444444444446%" stop-color="#28254c" stop-opacity="1"></stop><stop offset="85.55555555555554%" stop-color="#302f6d" stop-opacity="1"></stop></linearGradient></defs><defs><linearGradient id="grad2_6" x1="0%" y1="0%" x2="56.3%" y2="100%"><stop offset="14.444444444444446%" stop-color="#28254c" stop-opacity="1"></stop><stop offset="85.55555555555554%" stop-color="#1e1b2e" stop-opacity="1"></stop></linearGradient></defs><defs><linearGradient id="grad2_7" x1="0%" y1="0%" x2="56.3%" y2="100%"><stop offset="14.444444444444446%" stop-color="#111111" stop-opacity="1"></stop><stop offset="85.55555555555554%" stop-color="#1e1b2e" stop-opacity="1"></stop></linearGradient></defs><g transform="translate(960, 0)"><path d="M0 378C-36.7 364.2 -73.5 350.4 -109.4 336.7C-145.3 323 -180.4 309.4 -209.3 288C-238.1 266.6 -260.8 237.4 -287.2 208.7C-313.6 179.9 -343.7 151.5 -359.5 116.8C-375.3 82.1 -376.6 41 -378 0L0 0Z" fill="#18161f"></path><path d="M0 330.8C-32.1 318.7 -64.3 306.6 -95.7 294.6C-127.1 282.6 -157.8 270.7 -183.1 252C-208.4 233.3 -228.2 207.8 -251.3 182.6C-274.4 157.4 -300.8 132.6 -314.6 102.2C-328.3 71.8 -329.5 35.9 -330.7 0L0 0Z" fill="#23203d"></path><path d="M0 283.5C-27.6 273.1 -55.1 262.8 -82 252.5C-109 242.2 -135.3 232 -156.9 216C-178.6 200 -195.6 178.1 -215.4 156.5C-235.2 134.9 -257.8 113.6 -269.6 87.6C-281.4 61.6 -282.5 30.8 -283.5 0L0 0Z" fill="#2c2a5c"></path><path d="M0 236.3C-23 227.6 -45.9 219 -68.4 210.4C-90.8 201.9 -112.7 193.4 -130.8 180C-148.8 166.6 -163 148.4 -179.5 130.4C-196 112.4 -214.8 94.7 -224.7 73C-234.5 51.3 -235.4 25.7 -236.2 0L0 0Z" fill="#34347e"></path><path d="M0 189C-18.4 182.1 -36.7 175.2 -54.7 168.3C-72.7 161.5 -90.2 154.7 -104.6 144C-119.1 133.3 -130.4 118.7 -143.6 104.3C-156.8 89.9 -171.9 75.8 -179.7 58.4C-187.6 41 -188.3 20.5 -189 0L0 0Z" fill="#3a3ea1"></path><path d="M0 141.8C-13.8 136.6 -27.6 131.4 -41 126.3C-54.5 121.1 -67.6 116 -78.5 108C-89.3 100 -97.8 89 -107.7 78.2C-117.6 67.5 -128.9 56.8 -134.8 43.8C-140.7 30.8 -141.2 15.4 -141.7 0L0 0Z" fill="#3e49c6"></path><path d="M0 94.5C-9.2 91 -18.4 87.6 -27.3 84.2C-36.3 80.7 -45.1 77.3 -52.3 72C-59.5 66.7 -65.2 59.4 -71.8 52.2C-78.4 45 -85.9 37.9 -89.9 29.2C-93.8 20.5 -94.2 10.3 -94.5 0L0 0Z" fill="#4153ec"></path><path d="M0 47.3C-4.6 45.5 -9.2 43.8 -13.7 42.1C-18.2 40.4 -22.5 38.7 -26.2 36C-29.8 33.3 -32.6 29.7 -35.9 26.1C-39.2 22.5 -43 18.9 -44.9 14.6C-46.9 10.3 -47.1 5.1 -47.2 0L0 0Z" fill="#4259ff"></path></g><g transform="translate(0, 540)"><path d="M0 -378C37.7 -368.2 75.3 -358.4 113.1 -348.1C150.9 -337.8 188.7 -326.9 222.2 -305.8C255.6 -284.7 284.7 -253.3 300.1 -218.1C315.6 -182.8 317.4 -143.6 328.1 -106.6C338.8 -69.6 358.4 -34.8 378 0L0 0Z" fill="#18161f"></path><path d="M0 -330.7C33 -322.2 65.9 -313.6 99 -304.6C132 -295.5 165.1 -286 194.4 -267.6C223.7 -249.1 249.1 -221.7 262.6 -190.8C276.1 -159.9 277.7 -125.7 287.1 -93.3C296.5 -60.9 313.6 -30.5 330.8 0L0 0Z" fill="#23203d"></path><path d="M0 -283.5C28.3 -276.2 56.5 -268.8 84.8 -261.1C113.1 -253.3 141.5 -245.2 166.6 -229.4C191.7 -213.5 213.5 -190 225.1 -163.6C236.7 -137.1 238.1 -107.7 246.1 -80C254.1 -52.2 268.8 -26.1 283.5 0L0 0Z" fill="#2c2a5c"></path><path d="M0 -236.2C23.5 -230.1 47.1 -224 70.7 -217.6C94.3 -211.1 118 -204.3 138.9 -191.1C159.8 -177.9 177.9 -158.3 187.6 -136.3C197.2 -114.2 198.4 -89.8 205.1 -66.6C211.8 -43.5 224 -21.8 236.3 0L0 0Z" fill="#34347e"></path><path d="M0 -189C18.8 -184.1 37.7 -179.2 56.6 -174C75.4 -168.9 94.4 -163.5 111.1 -152.9C127.8 -142.4 142.4 -126.7 150.1 -109C157.8 -91.4 158.7 -71.8 164.1 -53.3C169.4 -34.8 179.2 -17.4 189 0L0 0Z" fill="#3a3ea1"></path><path d="M0 -141.7C14.1 -138.1 28.3 -134.4 42.4 -130.5C56.6 -126.7 70.8 -122.6 83.3 -114.7C95.9 -106.8 106.8 -95 112.6 -81.8C118.3 -68.5 119 -53.9 123 -40C127.1 -26.1 134.4 -13.1 141.8 0L0 0Z" fill="#3e49c6"></path><path d="M0 -94.5C9.4 -92.1 18.8 -89.6 28.3 -87C37.7 -84.4 47.2 -81.7 55.5 -76.5C63.9 -71.2 71.2 -63.3 75 -54.5C78.9 -45.7 79.4 -35.9 82 -26.7C84.7 -17.4 89.6 -8.7 94.5 0L0 0Z" fill="#4153ec"></path><path d="M0 -47.2C4.7 -46 9.4 -44.8 14.1 -43.5C18.9 -42.2 23.6 -40.9 27.8 -38.2C32 -35.6 35.6 -31.7 37.5 -27.3C39.4 -22.8 39.7 -18 41 -13.3C42.4 -8.7 44.8 -4.4 47.3 0L0 0Z" fill="#4259ff"></path></g></svg>