<svg id="visual" viewBox="0 0 900 600" width="900" height="600" xmlns="http://www.w3.org/2000/svg" xmlns:xlink="http://www.w3.org/1999/xlink" version="1.1"><rect x="0" y="0" width="900" height="600" fill="#4259ff"></rect><defs><linearGradient id="grad1_0" x1="33.3%" y1="0%" x2="100%" y2="100%"><stop offset="20%" stop-color="#ffffff" stop-opacity="1"></stop><stop offset="80%" stop-color="#ffffff" stop-opacity="1"></stop></linearGradient></defs><defs><linearGradient id="grad1_1" x1="33.3%" y1="0%" x2="100%" y2="100%"><stop offset="20%" stop-color="#ffffff" stop-opacity="1"></stop><stop offset="80%" stop-color="#ebe6ff" stop-opacity="1"></stop></linearGradient></defs><defs><linearGradient id="grad1_2" x1="33.3%" y1="0%" x2="100%" y2="100%"><stop offset="20%" stop-color="#d6cdff" stop-opacity="1"></stop><stop offset="80%" stop-color="#ebe6ff" stop-opacity="1"></stop></linearGradient></defs><defs><linearGradient id="grad1_3" x1="33.3%" y1="0%" x2="100%" y2="100%"><stop offset="20%" stop-color="#d6cdff" stop-opacity="1"></stop><stop offset="80%" stop-color="#c0b5ff" stop-opacity="1"></stop></linearGradient></defs><defs><linearGradient id="grad1_4" x1="33.3%" y1="0%" x2="100%" y2="100%"><stop offset="20%" stop-color="#a99dff" stop-opacity="1"></stop><stop offset="80%" stop-color="#c0b5ff" stop-opacity="1"></stop></linearGradient></defs><defs><linearGradient id="grad1_5" x1="33.3%" y1="0%" x2="100%" y2="100%"><stop offset="20%" stop-color="#a99dff" stop-opacity="1"></stop><stop offset="80%" stop-color="#8e86ff" stop-opacity="1"></stop></linearGradient></defs><defs><linearGradient id="grad1_6" x1="33.3%" y1="0%" x2="100%" y2="100%"><stop offset="20%" stop-color="#6e6fff" stop-opacity="1"></stop><stop offset="80%" stop-color="#8e86ff" stop-opacity="1"></stop></linearGradient></defs><defs><linearGradient id="grad1_7" x1="33.3%" y1="0%" x2="100%" y2="100%"><stop offset="20%" stop-color="#6e6fff" stop-opacity="1"></stop><stop offset="80%" stop-color="#4259ff" stop-opacity="1"></stop></linearGradient></defs><defs><linearGradient id="grad2_0" x1="0%" y1="0%" x2="66.7%" y2="100%"><stop offset="20%" stop-color="#ffffff" stop-opacity="1"></stop><stop offset="80%" stop-color="#ffffff" stop-opacity="1"></stop></linearGradient></defs><defs><linearGradient id="grad2_1" x1="0%" y1="0%" x2="66.7%" y2="100%"><stop offset="20%" stop-color="#ebe6ff" stop-opacity="1"></stop><stop offset="80%" stop-color="#ffffff" stop-opacity="1"></stop></linearGradient></defs><defs><linearGradient id="grad2_2" x1="0%" y1="0%" x2="66.7%" y2="100%"><stop offset="20%" stop-color="#ebe6ff" stop-opacity="1"></stop><stop offset="80%" stop-color="#d6cdff" stop-opacity="1"></stop></linearGradient></defs><defs><linearGradient id="grad2_3" x1="0%" y1="0%" x2="66.7%" y2="100%"><stop offset="20%" stop-color="#c0b5ff" stop-opacity="1"></stop><stop offset="80%" stop-color="#d6cdff" stop-opacity="1"></stop></linearGradient></defs><defs><linearGradient id="grad2_4" x1="0%" y1="0%" x2="66.7%" y2="100%"><stop offset="20%" stop-color="#c0b5ff" stop-opacity="1"></stop><stop offset="80%" stop-color="#a99dff" stop-opacity="1"></stop></linearGradient></defs><defs><linearGradient id="grad2_5" x1="0%" y1="0%" x2="66.7%" y2="100%"><stop offset="20%" stop-color="#8e86ff" stop-opacity="1"></stop><stop offset="80%" stop-color="#a99dff" stop-opacity="1"></stop></linearGradient></defs><defs><linearGradient id="grad2_6" x1="0%" y1="0%" x2="66.7%" y2="100%"><stop offset="20%" stop-color="#8e86ff" stop-opacity="1"></stop><stop offset="80%" stop-color="#6e6fff" stop-opacity="1"></stop></linearGradient></defs><defs><linearGradient id="grad2_7" x1="0%" y1="0%" x2="66.7%" y2="100%"><stop offset="20%" stop-color="#4259ff" stop-opacity="1"></stop><stop offset="80%" stop-color="#6e6fff" stop-opacity="1"></stop></linearGradient></defs><g transform="translate(900, 0)"><path d="M0 270.4C-39.6 250.4 -79.2 230.5 -121.5 210.4C-163.8 190.4 -208.9 170.3 -234.2 135.2C-259.5 100.1 -264.9 50.1 -270.4 0L0 0Z" fill="#5b64ff"></path><path d="M0 236.6C-34.6 219.1 -69.3 201.7 -106.3 184.1C-143.4 166.6 -182.8 149 -204.9 118.3C-227 87.6 -231.8 43.8 -236.6 0L0 0Z" fill="#7f7aff"></path><path d="M0 202.8C-29.7 187.8 -59.4 172.9 -91.1 157.8C-122.9 142.8 -156.7 127.7 -175.6 101.4C-194.6 75.1 -198.7 37.5 -202.8 0L0 0Z" fill="#9c91ff"></path><path d="M0 169C-24.7 156.5 -49.5 144.1 -75.9 131.5C-102.4 119 -130.6 106.4 -146.4 84.5C-162.2 62.6 -165.6 31.3 -169 0L0 0Z" fill="#b5a9ff"></path><path d="M0 135.2C-19.8 125.2 -39.6 115.2 -60.7 105.2C-81.9 95.2 -104.5 85.1 -117.1 67.6C-129.7 50.1 -132.5 25 -135.2 0L0 0Z" fill="#ccc1ff"></path><path d="M0 101.4C-14.8 93.9 -29.7 86.4 -45.6 78.9C-61.4 71.4 -78.3 63.9 -87.8 50.7C-97.3 37.5 -99.4 18.8 -101.4 0L0 0Z" fill="#e1d9ff"></path><path d="M0 67.6C-9.9 62.6 -19.8 57.6 -30.4 52.6C-41 47.6 -52.2 42.6 -58.5 33.8C-64.9 25 -66.2 12.5 -67.6 0L0 0Z" fill="#f5f2ff"></path><path d="M0 33.8C-4.9 31.3 -9.9 28.8 -15.2 26.3C-20.5 23.8 -26.1 21.3 -29.3 16.9C-32.4 12.5 -33.1 6.3 -33.8 0L0 0Z" fill="#ffffff"></path></g><g transform="translate(0, 600)"><path d="M0 -270.4C30.5 -234.7 61 -199.1 104.5 -181C148 -162.9 204.4 -162.4 234.2 -135.2C264 -108 267.2 -54 270.4 0L0 0Z" fill="#5b64ff"></path><path d="M0 -236.6C26.7 -205.4 53.4 -174.2 91.4 -158.4C129.5 -142.6 178.8 -142.1 204.9 -118.3C231 -94.5 233.8 -47.2 236.6 0L0 0Z" fill="#7f7aff"></path><path d="M0 -202.8C22.9 -176.1 45.8 -149.3 78.4 -135.7C111 -122.2 153.3 -121.8 175.6 -101.4C198 -81 200.4 -40.5 202.8 0L0 0Z" fill="#9c91ff"></path><path d="M0 -169C19.1 -146.7 38.1 -124.4 65.3 -113.1C92.5 -101.8 127.7 -101.5 146.4 -84.5C165 -67.5 167 -33.7 169 0L0 0Z" fill="#b5a9ff"></path><path d="M0 -135.2C15.3 -117.4 30.5 -99.5 52.2 -90.5C74 -81.5 102.2 -81.2 117.1 -67.6C132 -54 133.6 -27 135.2 0L0 0Z" fill="#ccc1ff"></path><path d="M0 -101.4C11.4 -88 22.9 -74.7 39.2 -67.9C55.5 -61.1 76.6 -60.9 87.8 -50.7C99 -40.5 100.2 -20.2 101.4 0L0 0Z" fill="#e1d9ff"></path><path d="M0 -67.6C7.6 -58.7 15.3 -49.8 26.1 -45.2C37 -40.7 51.1 -40.6 58.5 -33.8C66 -27 66.8 -13.5 67.6 0L0 0Z" fill="#f5f2ff"></path><path d="M0 -33.8C3.8 -29.3 7.6 -24.9 13.1 -22.6C18.5 -20.4 25.5 -20.3 29.3 -16.9C33 -13.5 33.4 -6.7 33.8 0L0 0Z" fill="#ffffff"></path></g></svg>