<svg id="visual" viewBox="0 0 1920 1080" width="1920" height="1080" xmlns="http://www.w3.org/2000/svg" xmlns:xlink="http://www.w3.org/1999/xlink" version="1.1"><rect x="0" y="0" width="1920" height="1080" fill="#4259ff"></rect><defs><linearGradient id="grad1_0" x1="43.8%" y1="0%" x2="100%" y2="100%"><stop offset="14.444444444444446%" stop-color="#ffffff" stop-opacity="1"></stop><stop offset="85.55555555555554%" stop-color="#ffffff" stop-opacity="1"></stop></linearGradient></defs><defs><linearGradient id="grad1_1" x1="43.8%" y1="0%" x2="100%" y2="100%"><stop offset="14.444444444444446%" stop-color="#ffffff" stop-opacity="1"></stop><stop offset="85.55555555555554%" stop-color="#ebe6ff" stop-opacity="1"></stop></linearGradient></defs><defs><linearGradient id="grad1_2" x1="43.8%" y1="0%" x2="100%" y2="100%"><stop offset="14.444444444444446%" stop-color="#d6cdff" stop-opacity="1"></stop><stop offset="85.55555555555554%" stop-color="#ebe6ff" stop-opacity="1"></stop></linearGradient></defs><defs><linearGradient id="grad1_3" x1="43.8%" y1="0%" x2="100%" y2="100%"><stop offset="14.444444444444446%" stop-color="#d6cdff" stop-opacity="1"></stop><stop offset="85.55555555555554%" stop-color="#c0b5ff" stop-opacity="1"></stop></linearGradient></defs><defs><linearGradient id="grad1_4" x1="43.8%" y1="0%" x2="100%" y2="100%"><stop offset="14.444444444444446%" stop-color="#a99dff" stop-opacity="1"></stop><stop offset="85.55555555555554%" stop-color="#c0b5ff" stop-opacity="1"></stop></linearGradient></defs><defs><linearGradient id="grad1_5" x1="43.8%" y1="0%" x2="100%" y2="100%"><stop offset="14.444444444444446%" stop-color="#a99dff" stop-opacity="1"></stop><stop offset="85.55555555555554%" stop-color="#8e86ff" stop-opacity="1"></stop></linearGradient></defs><defs><linearGradient id="grad1_6" x1="43.8%" y1="0%" x2="100%" y2="100%"><stop offset="14.444444444444446%" stop-color="#6e6fff" stop-opacity="1"></stop><stop offset="85.55555555555554%" stop-color="#8e86ff" stop-opacity="1"></stop></linearGradient></defs><defs><linearGradient id="grad1_7" x1="43.8%" y1="0%" x2="100%" y2="100%"><stop offset="14.444444444444446%" stop-color="#6e6fff" stop-opacity="1"></stop><stop offset="85.55555555555554%" stop-color="#4259ff" stop-opacity="1"></stop></linearGradient></defs><defs><linearGradient id="grad2_0" x1="0%" y1="0%" x2="56.3%" y2="100%"><stop offset="14.444444444444446%" stop-color="#ffffff" stop-opacity="1"></stop><stop offset="85.55555555555554%" stop-color="#ffffff" stop-opacity="1"></stop></linearGradient></defs><defs><linearGradient id="grad2_1" x1="0%" y1="0%" x2="56.3%" y2="100%"><stop offset="14.444444444444446%" stop-color="#ebe6ff" stop-opacity="1"></stop><stop offset="85.55555555555554%" stop-color="#ffffff" stop-opacity="1"></stop></linearGradient></defs><defs><linearGradient id="grad2_2" x1="0%" y1="0%" x2="56.3%" y2="100%"><stop offset="14.444444444444446%" stop-color="#ebe6ff" stop-opacity="1"></stop><stop offset="85.55555555555554%" stop-color="#d6cdff" stop-opacity="1"></stop></linearGradient></defs><defs><linearGradient id="grad2_3" x1="0%" y1="0%" x2="56.3%" y2="100%"><stop offset="14.444444444444446%" stop-color="#c0b5ff" stop-opacity="1"></stop><stop offset="85.55555555555554%" stop-color="#d6cdff" stop-opacity="1"></stop></linearGradient></defs><defs><linearGradient id="grad2_4" x1="0%" y1="0%" x2="56.3%" y2="100%"><stop offset="14.444444444444446%" stop-color="#c0b5ff" stop-opacity="1"></stop><stop offset="85.55555555555554%" stop-color="#a99dff" stop-opacity="1"></stop></linearGradient></defs><defs><linearGradient id="grad2_5" x1="0%" y1="0%" x2="56.3%" y2="100%"><stop offset="14.444444444444446%" stop-color="#8e86ff" stop-opacity="1"></stop><stop offset="85.55555555555554%" stop-color="#a99dff" stop-opacity="1"></stop></linearGradient></defs><defs><linearGradient id="grad2_6" x1="0%" y1="0%" x2="56.3%" y2="100%"><stop offset="14.444444444444446%" stop-color="#8e86ff" stop-opacity="1"></stop><stop offset="85.55555555555554%" stop-color="#6e6fff" stop-opacity="1"></stop></linearGradient></defs><defs><linearGradient id="grad2_7" x1="0%" y1="0%" x2="56.3%" y2="100%"><stop offset="14.444444444444446%" stop-color="#4259ff" stop-opacity="1"></stop><stop offset="85.55555555555554%" stop-color="#6e6fff" stop-opacity="1"></stop></linearGradient></defs><g transform="translate(1920, 0)"><path d="M0 756C-130.6 734.7 -261.1 713.3 -377 653C-492.9 592.7 -594 493.3 -654.7 378C-715.4 262.7 -735.7 131.3 -756 0L0 0Z" fill="#5b64ff"></path><path d="M0 661.5C-114.2 642.8 -228.5 624.2 -329.9 571.4C-431.3 518.6 -519.8 431.7 -572.9 330.8C-626 229.8 -643.8 114.9 -661.5 0L0 0Z" fill="#7f7aff"></path><path d="M0 567C-97.9 551 -195.9 535 -282.7 489.7C-369.6 444.5 -445.5 370 -491 283.5C-536.6 197 -551.8 98.5 -567 0L0 0Z" fill="#9c91ff"></path><path d="M0 472.5C-81.6 459.2 -163.2 445.8 -235.6 408.1C-308 370.4 -371.3 308.3 -409.2 236.3C-447.1 164.2 -459.8 82.1 -472.5 0L0 0Z" fill="#b5a9ff"></path><path d="M0 378C-65.3 367.3 -130.6 356.7 -188.5 326.5C-246.4 296.3 -297 246.7 -327.4 189C-357.7 131.3 -367.9 65.7 -378 0L0 0Z" fill="#ccc1ff"></path><path d="M0 283.5C-49 275.5 -97.9 267.5 -141.4 244.9C-184.8 222.2 -222.8 185 -245.5 141.8C-268.3 98.5 -275.9 49.3 -283.5 0L0 0Z" fill="#e1d9ff"></path><path d="M0 189C-32.6 183.7 -65.3 178.3 -94.2 163.2C-123.2 148.2 -148.5 123.3 -163.7 94.5C-178.9 65.7 -183.9 32.8 -189 0L0 0Z" fill="#f5f2ff"></path><path d="M0 94.5C-16.3 91.8 -32.6 89.2 -47.1 81.6C-61.6 74.1 -74.3 61.7 -81.8 47.3C-89.4 32.8 -92 16.4 -94.5 0L0 0Z" fill="#ffffff"></path></g><g transform="translate(0, 1080)"><path d="M0 -756C130.8 -735.1 261.7 -714.2 377.5 -653.8C493.3 -593.5 594.1 -493.6 654.7 -378C715.3 -262.4 735.6 -131.2 756 0L0 0Z" fill="#5b64ff"></path><path d="M0 -661.5C114.5 -643.2 229 -625 330.3 -572.1C431.7 -519.3 519.9 -431.9 572.9 -330.8C625.9 -229.6 643.7 -114.8 661.5 0L0 0Z" fill="#7f7aff"></path><path d="M0 -567C98.1 -551.3 196.3 -535.7 283.1 -490.4C370 -445.1 445.6 -370.2 491 -283.5C536.5 -196.8 551.7 -98.4 567 0L0 0Z" fill="#9c91ff"></path><path d="M0 -472.5C81.8 -459.4 163.5 -446.4 235.9 -408.7C308.3 -370.9 371.3 -308.5 409.2 -236.3C447.1 -164 459.8 -82 472.5 0L0 0Z" fill="#b5a9ff"></path><path d="M0 -378C65.4 -367.6 130.8 -357.1 188.7 -326.9C246.7 -296.7 297.1 -246.8 327.4 -189C357.6 -131.2 367.8 -65.6 378 0L0 0Z" fill="#ccc1ff"></path><path d="M0 -283.5C49.1 -275.7 98.1 -267.8 141.6 -245.2C185 -222.5 222.8 -185.1 245.5 -141.8C268.2 -98.4 275.9 -49.2 283.5 0L0 0Z" fill="#e1d9ff"></path><path d="M0 -189C32.7 -183.8 65.4 -178.6 94.4 -163.5C123.3 -148.4 148.5 -123.4 163.7 -94.5C178.8 -65.6 183.9 -32.8 189 0L0 0Z" fill="#f5f2ff"></path><path d="M0 -94.5C16.4 -91.9 32.7 -89.3 47.2 -81.7C61.7 -74.2 74.3 -61.7 81.8 -47.3C89.4 -32.8 92 -16.4 94.5 0L0 0Z" fill="#ffffff"></path></g></svg>