<svg id="visual" viewBox="0 0 1920 1080" width="1920" height="1080" xmlns="http://www.w3.org/2000/svg" xmlns:xlink="http://www.w3.org/1999/xlink" version="1.1"><rect x="0" y="0" width="1920" height="1080" fill="#16192b"></rect><path d="M1027 1080L1063.5 1020C1100 960 1173 840 1188.3 720C1203.7 600 1161.3 480 1143.3 360C1125.3 240 1131.7 120 1134.8 60L1138 0L1920 0L1920 60C1920 120 1920 240 1920 360C1920 480 1920 600 1920 720C1920 840 1920 960 1920 1020L1920 1080Z" fill="#818eff"></path><path d="M1405 1080L1418.3 1020C1431.7 960 1458.3 840 1449.7 720C1441 600 1397 480 1398.2 360C1399.3 240 1445.7 120 1468.8 60L1492 0L1920 0L1920 60C1920 120 1920 240 1920 360C1920 480 1920 600 1920 720C1920 840 1920 960 1920 1020L1920 1080Z" fill="#596bff"></path><path d="M1565 1080L1570.7 1020C1576.3 960 1587.7 840 1583.5 720C1579.3 600 1559.7 480 1567.7 360C1575.7 240 1611.3 120 1629.2 60L1647 0L1920 0L1920 60C1920 120 1920 240 1920 360C1920 480 1920 600 1920 720C1920 840 1920 960 1920 1020L1920 1080Z" fill="#3c4fea"></path><path d="M1637 1080L1644.5 1020C1652 960 1667 840 1687.7 720C1708.3 600 1734.7 480 1730.3 360C1726 240 1691 120 1673.5 60L1656 0L1920 0L1920 60C1920 120 1920 240 1920 360C1920 480 1920 600 1920 720C1920 840 1920 960 1920 1020L1920 1080Z" fill="#2f3cc0"></path></svg>