<svg id="visual" viewBox="0 0 700 1000" width="700" height="1000" xmlns="http://www.w3.org/2000/svg" xmlns:xlink="http://www.w3.org/1999/xlink" version="1.1"><rect x="0" y="0" width="700" height="1000" fill="#fff"></rect><path d="M0 587L38.8 604.2C77.7 621.3 155.3 655.7 233.2 657.7C311 659.7 389 629.3 466.8 629.5C544.7 629.7 622.3 660.3 661.2 675.7L700 691L700 1001L661.2 1001C622.3 1001 544.7 1001 466.8 1001C389 1001 311 1001 233.2 1001C155.3 1001 77.7 1001 38.8 1001L0 1001Z" fill="#818eff"></path><path d="M0 763L38.8 766.2C77.7 769.3 155.3 775.7 233.2 778C311 780.3 389 778.7 466.8 781.8C544.7 785 622.3 793 661.2 797L700 801L700 1001L661.2 1001C622.3 1001 544.7 1001 466.8 1001C389 1001 311 1001 233.2 1001C155.3 1001 77.7 1001 38.8 1001L0 1001Z" fill="#596bff"></path><path d="M0 856L38.8 855.8C77.7 855.7 155.3 855.3 233.2 857.5C311 859.7 389 864.3 466.8 864.5C544.7 864.7 622.3 860.3 661.2 858.2L700 856L700 1001L661.2 1001C622.3 1001 544.7 1001 466.8 1001C389 1001 311 1001 233.2 1001C155.3 1001 77.7 1001 38.8 1001L0 1001Z" fill="#3c4fea"></path><path d="M0 937L38.8 938.7C77.7 940.3 155.3 943.7 233.2 930.7C311 917.7 389 888.3 466.8 886.3C544.7 884.3 622.3 909.7 661.2 922.3L700 935L700 1001L661.2 1001C622.3 1001 544.7 1001 466.8 1001C389 1001 311 1001 233.2 1001C155.3 1001 77.7 1001 38.8 1001L0 1001Z" fill="#2f3cc0"></path></svg>