<svg id="visual" viewBox="0 0 1000 400" width="1000" height="400" xmlns="http://www.w3.org/2000/svg" xmlns:xlink="http://www.w3.org/1999/xlink" version="1.1"><rect x="0" y="0" width="1000" height="400" fill="#4259ff"></rect><path d="M0 259L83.3 265.2C166.7 271.3 333.3 283.7 500 291.5C666.7 299.3 833.3 302.7 916.7 304.3L1000 306L1000 401L916.7 401C833.3 401 666.7 401 500 401C333.3 401 166.7 401 83.3 401L0 401Z" fill="#ffffff"></path><path d="M0 324L83.3 314C166.7 304 333.3 284 500 286C666.7 288 833.3 312 916.7 324L1000 336L1000 401L916.7 401C833.3 401 666.7 401 500 401C333.3 401 166.7 401 83.3 401L0 401Z" fill="#eeeeee"></path><path d="M0 364L83.3 365.8C166.7 367.7 333.3 371.3 500 366.2C666.7 361 833.3 347 916.7 340L1000 333L1000 401L916.7 401C833.3 401 666.7 401 500 401C333.3 401 166.7 401 83.3 401L0 401Z" fill="#dddddd"></path><path d="M0 385L83.3 378.7C166.7 372.3 333.3 359.7 500 355.7C666.7 351.7 833.3 356.3 916.7 358.7L1000 361L1000 401L916.7 401C833.3 401 666.7 401 500 401C333.3 401 166.7 401 83.3 401L0 401Z" fill="#cccccc"></path></svg>