<svg id="visual" viewBox="0 0 1000 500" width="1000" height="500" xmlns="http://www.w3.org/2000/svg" xmlns:xlink="http://www.w3.org/1999/xlink" version="1.1"><rect x="0" y="0" width="1000" height="500" fill="#16192b"></rect><path d="M0 341L55.5 335C111 329 222 317 333.2 311.7C444.3 306.3 555.7 307.7 666.8 310.7C778 313.7 889 318.3 944.5 320.7L1000 323L1000 501L944.5 501C889 501 778 501 666.8 501C555.7 501 444.3 501 333.2 501C222 501 111 501 55.5 501L0 501Z" fill="#818eff"></path><path d="M0 352L55.5 358.2C111 364.3 222 376.7 333.2 378C444.3 379.3 555.7 369.7 666.8 369.7C778 369.7 889 379.3 944.5 384.2L1000 389L1000 501L944.5 501C889 501 778 501 666.8 501C555.7 501 444.3 501 333.2 501C222 501 111 501 55.5 501L0 501Z" fill="#596bff"></path><path d="M0 417L55.5 414.5C111 412 222 407 333.2 409.8C444.3 412.7 555.7 423.3 666.8 427.7C778 432 889 430 944.5 429L1000 428L1000 501L944.5 501C889 501 778 501 666.8 501C555.7 501 444.3 501 333.2 501C222 501 111 501 55.5 501L0 501Z" fill="#3c4fea"></path><path d="M0 462L55.5 455.8C111 449.7 222 437.3 333.2 432.3C444.3 427.3 555.7 429.7 666.8 431.3C778 433 889 434 944.5 434.5L1000 435L1000 501L944.5 501C889 501 778 501 666.8 501C555.7 501 444.3 501 333.2 501C222 501 111 501 55.5 501L0 501Z" fill="#2f3cc0"></path></svg>