<svg id="visual" viewBox="0 0 700 1000" width="700" height="1000" xmlns="http://www.w3.org/2000/svg" xmlns:xlink="http://www.w3.org/1999/xlink" version="1.1"><rect x="0" y="0" width="700" height="1000" fill="#fff"></rect><path d="M0 639L38.8 655.3C77.7 671.7 155.3 704.3 233.2 703.7C311 703 389 669 466.8 649.3C544.7 629.7 622.3 624.3 661.2 621.7L700 619L700 1001L661.2 1001C622.3 1001 544.7 1001 466.8 1001C389 1001 311 1001 233.2 1001C155.3 1001 77.7 1001 38.8 1001L0 1001Z" fill="#818eff"></path><path d="M0 727L38.8 734C77.7 741 155.3 755 233.2 748.3C311 741.7 389 714.3 466.8 708.7C544.7 703 622.3 719 661.2 727L700 735L700 1001L661.2 1001C622.3 1001 544.7 1001 466.8 1001C389 1001 311 1001 233.2 1001C155.3 1001 77.7 1001 38.8 1001L0 1001Z" fill="#596bff"></path><path d="M0 774L38.8 779C77.7 784 155.3 794 233.2 812.2C311 830.3 389 856.7 466.8 863.7C544.7 870.7 622.3 858.3 661.2 852.2L700 846L700 1001L661.2 1001C622.3 1001 544.7 1001 466.8 1001C389 1001 311 1001 233.2 1001C155.3 1001 77.7 1001 38.8 1001L0 1001Z" fill="#3c4fea"></path><path d="M0 932L38.8 925.7C77.7 919.3 155.3 906.7 233.2 907.7C311 908.7 389 923.3 466.8 927.3C544.7 931.3 622.3 924.7 661.2 921.3L700 918L700 1001L661.2 1001C622.3 1001 544.7 1001 466.8 1001C389 1001 311 1001 233.2 1001C155.3 1001 77.7 1001 38.8 1001L0 1001Z" fill="#2f3cc0"></path></svg>