<svg id="visual" viewBox="0 0 1920 200" width="1920" height="200" xmlns="http://www.w3.org/2000/svg" xmlns:xlink="http://www.w3.org/1999/xlink" version="1.1"><rect x="0" y="0" width="1920" height="200" fill="#16192b"></rect><path d="M1091 200L1128.8 188.8C1166.7 177.7 1242.3 155.3 1241 133.2C1239.7 111 1161.3 89 1116 66.8C1070.7 44.7 1058.3 22.3 1052.2 11.2L1046 0L1920 0L1920 11.2C1920 22.3 1920 44.7 1920 66.8C1920 89 1920 111 1920 133.2C1920 155.3 1920 177.7 1920 188.8L1920 200Z" fill="#818eff"></path><path d="M1294 200L1310.2 188.8C1326.3 177.7 1358.7 155.3 1343.3 133.2C1328 111 1265 89 1252 66.8C1239 44.7 1276 22.3 1294.5 11.2L1313 0L1920 0L1920 11.2C1920 22.3 1920 44.7 1920 66.8C1920 89 1920 111 1920 133.2C1920 155.3 1920 177.7 1920 188.8L1920 200Z" fill="#596bff"></path><path d="M1403 200L1414.5 188.8C1426 177.7 1449 155.3 1490.7 133.2C1532.3 111 1592.7 89 1608.7 66.8C1624.7 44.7 1596.3 22.3 1582.2 11.2L1568 0L1920 0L1920 11.2C1920 22.3 1920 44.7 1920 66.8C1920 89 1920 111 1920 133.2C1920 155.3 1920 177.7 1920 188.8L1920 200Z" fill="#3c4fea"></path><path d="M1767 200L1752.3 188.8C1737.7 177.7 1708.3 155.3 1710.5 133.2C1712.7 111 1746.3 89 1755.7 66.8C1765 44.7 1750 22.3 1742.5 11.2L1735 0L1920 0L1920 11.2C1920 22.3 1920 44.7 1920 66.8C1920 89 1920 111 1920 133.2C1920 155.3 1920 177.7 1920 188.8L1920 200Z" fill="#2f3cc0"></path></svg>