<svg id="visual" viewBox="0 0 700 1000" width="700" height="1000" xmlns="http://www.w3.org/2000/svg" xmlns:xlink="http://www.w3.org/1999/xlink" version="1.1"><rect x="0" y="0" width="700" height="1000" fill="#fff"></rect><path d="M0 730L38.8 710.7C77.7 691.3 155.3 652.7 233.2 632.3C311 612 389 610 466.8 610.5C544.7 611 622.3 614 661.2 615.5L700 617L700 1001L661.2 1001C622.3 1001 544.7 1001 466.8 1001C389 1001 311 1001 233.2 1001C155.3 1001 77.7 1001 38.8 1001L0 1001Z" fill="#818eff"></path><path d="M0 694L38.8 698C77.7 702 155.3 710 233.2 719.8C311 729.7 389 741.3 466.8 740.5C544.7 739.7 622.3 726.3 661.2 719.7L700 713L700 1001L661.2 1001C622.3 1001 544.7 1001 466.8 1001C389 1001 311 1001 233.2 1001C155.3 1001 77.7 1001 38.8 1001L0 1001Z" fill="#596bff"></path><path d="M0 787L38.8 792.3C77.7 797.7 155.3 808.3 233.2 820.5C311 832.7 389 846.3 466.8 857C544.7 867.7 622.3 875.3 661.2 879.2L700 883L700 1001L661.2 1001C622.3 1001 544.7 1001 466.8 1001C389 1001 311 1001 233.2 1001C155.3 1001 77.7 1001 38.8 1001L0 1001Z" fill="#3c4fea"></path><path d="M0 849L38.8 860C77.7 871 155.3 893 233.2 903C311 913 389 911 466.8 901.7C544.7 892.3 622.3 875.7 661.2 867.3L700 859L700 1001L661.2 1001C622.3 1001 544.7 1001 466.8 1001C389 1001 311 1001 233.2 1001C155.3 1001 77.7 1001 38.8 1001L0 1001Z" fill="#2f3cc0"></path></svg>