<svg id="visual" viewBox="0 0 1000 500" width="1000" height="500" xmlns="http://www.w3.org/2000/svg" xmlns:xlink="http://www.w3.org/1999/xlink" version="1.1"><rect x="0" y="0" width="1000" height="500" fill="#16192b"></rect><path d="M0 314L55.5 321.2C111 328.3 222 342.7 333.2 347.3C444.3 352 555.7 347 666.8 345.2C778 343.3 889 344.7 944.5 345.3L1000 346L1000 501L944.5 501C889 501 778 501 666.8 501C555.7 501 444.3 501 333.2 501C222 501 111 501 55.5 501L0 501Z" fill="#818eff"></path><path d="M0 384L55.5 383.2C111 382.3 222 380.7 333.2 379.3C444.3 378 555.7 377 666.8 382.2C778 387.3 889 398.7 944.5 404.3L1000 410L1000 501L944.5 501C889 501 778 501 666.8 501C555.7 501 444.3 501 333.2 501C222 501 111 501 55.5 501L0 501Z" fill="#596bff"></path><path d="M0 424L55.5 417.5C111 411 222 398 333.2 400.7C444.3 403.3 555.7 421.7 666.8 423.8C778 426 889 412 944.5 405L1000 398L1000 501L944.5 501C889 501 778 501 666.8 501C555.7 501 444.3 501 333.2 501C222 501 111 501 55.5 501L0 501Z" fill="#3c4fea"></path><path d="M0 433L55.5 433.8C111 434.7 222 436.3 333.2 437.2C444.3 438 555.7 438 666.8 441C778 444 889 450 944.5 453L1000 456L1000 501L944.5 501C889 501 778 501 666.8 501C555.7 501 444.3 501 333.2 501C222 501 111 501 55.5 501L0 501Z" fill="#2f3cc0"></path></svg>