<?xml version="1.0" encoding="UTF-8"?>
<svg width="2350px" height="2350px" viewBox="0 0 2350 2350" version="1.1" xmlns="http://www.w3.org/2000/svg" xmlns:xlink="http://www.w3.org/1999/xlink">
    <title>Logo_Color_BG</title>
    <g id="Logo" stroke="none" stroke-width="1" fill="none" fill-rule="evenodd">
        <g id="Logo_Color_BG">
            <rect id="Rectangle" fill="#4259FF" x="0" y="0" width="2350" height="2350" rx="400"></rect>
            <path d="M723.788608,661.17917 L1494.26648,661.17917 C1629.97475,665.883837 1734.21368,727.279746 1806.98327,845.366896 C1879.75287,963.454046 1893.8577,1087.07376 1849.29778,1216.22605 L1464.07718,2033.62839 L1229.51896,1688.5777 C1398.86254,1343.23068 1494.87442,1149.13566 1517.55458,1106.29263 C1540.23474,1063.44961 1527.89263,1028.75422 1480.52824,1002.20645 L939.256261,1002.20645 L723.788608,661.17917 Z" id="Path-3-Copy-3" fill="#111111"></path>
            <path d="M475.788608,316.17917 L1246.26648,316.17917 C1381.97475,320.883837 1486.21368,382.279746 1558.98327,500.366896 C1631.75287,618.454046 1645.8577,742.073763 1601.29778,871.226046 L1216.07718,1688.62839 L981.518961,1343.5777 C1150.86254,998.230679 1246.87442,804.135657 1269.55458,761.292634 C1292.23474,718.449612 1279.89263,683.754218 1232.52824,657.206452 L691.256261,657.206452 L475.788608,316.17917 Z" id="Path-3-Copy-2" fill="#FFFFFF" transform="translate(1051.235567, 1002.403780) rotate(180.000000) translate(-1051.235567, -1002.403780) "></path>
        </g>
    </g>
</svg>