<svg id="visual" viewBox="0 0 1920 540" width="1920" height="540" xmlns="http://www.w3.org/2000/svg" xmlns:xlink="http://www.w3.org/1999/xlink" version="1.1"><path d="M0 33L160 34C320 35 640 37 960 38C1280 39 1600 39 1760 39L1920 39L1920 0L1760 0C1600 0 1280 0 960 0C640 0 320 0 160 0L0 0Z" fill="#111111"></path><path d="M0 33L160 41.2C320 49.3 640 65.7 960 69.3C1280 73 1600 64 1760 59.5L1920 55L1920 37L1760 37C1600 37 1280 37 960 36C640 35 320 33 160 32L0 31Z" fill="#1a1823"></path><path d="M0 55L160 64.8C320 74.7 640 94.3 960 99.7C1280 105 1600 96 1760 91.5L1920 87L1920 53L1760 57.5C1600 62 1280 71 960 67.3C640 63.7 320 47.3 160 39.2L0 31Z" fill="#211e36"></path><path d="M0 174L160 186.5C320 199 640 224 960 233.8C1280 243.7 1600 238.3 1760 235.7L1920 233L1920 85L1760 89.5C1600 94 1280 103 960 97.7C640 92.3 320 72.7 160 62.8L0 53Z" fill="#272449"></path><path d="M0 266L160 269.5C320 273 640 280 960 284.5C1280 289 1600 291 1760 292L1920 293L1920 231L1760 233.7C1600 236.3 1280 241.7 960 231.8C640 222 320 197 160 184.5L0 172Z" fill="#2d2a5e"></path><path d="M0 298L160 302.5C320 307 640 316 960 317.8C1280 319.7 1600 314.3 1760 311.7L1920 309L1920 291L1760 290C1600 289 1280 287 960 282.5C640 278 320 271 160 267.5L0 264Z" fill="#323173"></path><path d="M0 325L160 344.8C320 364.7 640 404.3 960 415.2C1280 426 1600 408 1760 399L1920 390L1920 307L1760 309.7C1600 312.3 1280 317.7 960 315.8C640 314 320 305 160 300.5L0 296Z" fill="#363789"></path><path d="M0 401L160 413.5C320 426 640 451 960 453.7C1280 456.3 1600 436.7 1760 426.8L1920 417L1920 388L1760 397C1600 406 1280 424 960 413.2C640 402.3 320 362.7 160 342.8L0 323Z" fill="#3a3ea0"></path><path d="M0 406L160 417.7C320 429.3 640 452.7 960 460.8C1280 469 1600 462 1760 458.5L1920 455L1920 415L1760 424.8C1600 434.7 1280 454.3 960 451.7C640 449 320 424 160 411.5L0 399Z" fill="#3d44b7"></path><path d="M0 428L160 441.5C320 455 640 482 960 491C1280 500 1600 491 1760 486.5L1920 482L1920 453L1760 456.5C1600 460 1280 467 960 458.8C640 450.7 320 427.3 160 415.7L0 404Z" fill="#3f4bce"></path><path d="M0 438L160 449.8C320 461.7 640 485.3 960 499.8C1280 514.3 1600 519.7 1760 522.3L1920 525L1920 480L1760 484.5C1600 489 1280 498 960 489C640 480 320 453 160 439.5L0 426Z" fill="#4152e6"></path><path d="M0 541L160 541C320 541 640 541 960 541C1280 541 1600 541 1760 541L1920 541L1920 523L1760 520.3C1600 517.7 1280 512.3 960 497.8C640 483.3 320 459.7 160 447.8L0 436Z" fill="#4259ff"></path></svg>