<svg id="visual" viewBox="0 0 960 540" width="960" height="540" xmlns="http://www.w3.org/2000/svg" xmlns:xlink="http://www.w3.org/1999/xlink" version="1.1"><path d="M0 28L80 25.3C160 22.7 320 17.3 480 15.5C640 13.7 800 15.3 880 16.2L960 17L960 0L880 0C800 0 640 0 480 0C320 0 160 0 80 0L0 0Z" fill="#111111"></path><path d="M0 71L80 61.2C160 51.3 320 31.7 480 22.7C640 13.7 800 15.3 880 16.2L960 17L960 15L880 14.2C800 13.3 640 11.7 480 13.5C320 15.3 160 20.7 80 23.3L0 26Z" fill="#1a1823"></path><path d="M0 104L80 92.2C160 80.3 320 56.7 480 44.8C640 33 800 33 880 33L960 33L960 15L880 14.2C800 13.3 640 11.7 480 20.7C320 29.7 160 49.3 80 59.2L0 69Z" fill="#211e36"></path><path d="M0 185L80 181.3C160 177.7 320 170.3 480 168.5C640 166.7 800 170.3 880 172.2L960 174L960 31L880 31C800 31 640 31 480 42.8C320 54.7 160 78.3 80 90.2L0 102Z" fill="#272449"></path><path d="M0 276L80 285C160 294 320 312 480 307.5C640 303 800 276 880 262.5L960 249L960 172L880 170.2C800 168.3 640 164.7 480 166.5C320 168.3 160 175.7 80 179.3L0 183Z" fill="#2d2a5e"></path><path d="M0 276L80 288.7C160 301.3 320 326.7 480 322.2C640 317.7 800 283.3 880 266.2L960 249L960 247L880 260.5C800 274 640 301 480 305.5C320 310 160 292 80 283L0 274Z" fill="#323173"></path><path d="M0 347L80 350.5C160 354 320 361 480 352C640 343 800 318 880 305.5L960 293L960 247L880 264.2C800 281.3 640 315.7 480 320.2C320 324.7 160 299.3 80 286.7L0 274Z" fill="#363789"></path><path d="M0 363L80 367.5C160 372 320 381 480 378.3C640 375.7 800 361.3 880 354.2L960 347L960 291L880 303.5C800 316 640 341 480 350C320 359 160 352 80 348.5L0 345Z" fill="#3a3ea0"></path><path d="M0 395L80 402.2C160 409.3 320 423.7 480 422.8C640 422 800 406 880 398L960 390L960 345L880 352.2C800 359.3 640 373.7 480 376.3C320 379 160 370 80 365.5L0 361Z" fill="#3d44b7"></path><path d="M0 476L80 474.2C160 472.3 320 468.7 480 467.8C640 467 800 469 880 470L960 471L960 388L880 396C800 404 640 420 480 420.8C320 421.7 160 407.3 80 400.2L0 393Z" fill="#3f4bce"></path><path d="M0 503L80 502.2C160 501.3 320 499.7 480 506C640 512.3 800 526.7 880 533.8L960 541L960 469L880 468C800 467 640 465 480 465.8C320 466.7 160 470.3 80 472.2L0 474Z" fill="#4152e6"></path><path d="M0 541L80 541C160 541 320 541 480 541C640 541 800 541 880 541L960 541L960 539L880 531.8C800 524.7 640 510.3 480 504C320 497.7 160 499.3 80 500.2L0 501Z" fill="#4259ff"></path></svg>