<svg id="visual" viewBox="0 0 900 50" width="900" height="50" xmlns="http://www.w3.org/2000/svg" xmlns:xlink="http://www.w3.org/1999/xlink" version="1.1"><path d="M0 21L13.7 19.3C27.3 17.7 54.7 14.3 82 15.7C109.3 17 136.7 23 163.8 23.3C191 23.7 218 18.3 245.2 16C272.3 13.7 299.7 14.3 327 16C354.3 17.7 381.7 20.3 409 21.2C436.3 22 463.7 21 491 20.5C518.3 20 545.7 20 573 18.8C600.3 17.7 627.7 15.3 654.8 16C682 16.7 709 20.3 736.2 20C763.3 19.7 790.7 15.3 818 13.5C845.3 11.7 872.7 12.3 886.3 12.7L900 13L900 0L886.3 0C872.7 0 845.3 0 818 0C790.7 0 763.3 0 736.2 0C709 0 682 0 654.8 0C627.7 0 600.3 0 573 0C545.7 0 518.3 0 491 0C463.7 0 436.3 0 409 0C381.7 0 354.3 0 327 0C299.7 0 272.3 0 245.2 0C218 0 191 0 163.8 0C136.7 0 109.3 0 82 0C54.7 0 27.3 0 13.7 0L0 0Z" fill="#ffc87a"></path><path d="M0 32L13.7 29.5C27.3 27 54.7 22 82 23C109.3 24 136.7 31 163.8 32C191 33 218 28 245.2 26.2C272.3 24.3 299.7 25.7 327 28.2C354.3 30.7 381.7 34.3 409 35.3C436.3 36.3 463.7 34.7 491 33.2C518.3 31.7 545.7 30.3 573 28.5C600.3 26.7 627.7 24.3 654.8 25.7C682 27 709 32 736.2 32.7C763.3 33.3 790.7 29.7 818 27.2C845.3 24.7 872.7 23.3 886.3 22.7L900 22L900 11L886.3 10.7C872.7 10.3 845.3 9.7 818 11.5C790.7 13.3 763.3 17.7 736.2 18C709 18.3 682 14.7 654.8 14C627.7 13.3 600.3 15.7 573 16.8C545.7 18 518.3 18 491 18.5C463.7 19 436.3 20 409 19.2C381.7 18.3 354.3 15.7 327 14C299.7 12.3 272.3 11.7 245.2 14C218 16.3 191 21.7 163.8 21.3C136.7 21 109.3 15 82 13.7C54.7 12.3 27.3 15.7 13.7 17.3L0 19Z" fill="#fdb752"></path><path d="M0 39L13.7 37.2C27.3 35.3 54.7 31.7 82 32.2C109.3 32.7 136.7 37.3 163.8 37.5C191 37.7 218 33.3 245.2 32.5C272.3 31.7 299.7 34.3 327 36.5C354.3 38.7 381.7 40.3 409 40.8C436.3 41.3 463.7 40.7 491 40.5C518.3 40.3 545.7 40.7 573 39.2C600.3 37.7 627.7 34.3 654.8 34.3C682 34.3 709 37.7 736.2 37.7C763.3 37.7 790.7 34.3 818 32.3C845.3 30.3 872.7 29.7 886.3 29.3L900 29L900 20L886.3 20.7C872.7 21.3 845.3 22.7 818 25.2C790.7 27.7 763.3 31.3 736.2 30.7C709 30 682 25 654.8 23.7C627.7 22.3 600.3 24.7 573 26.5C545.7 28.3 518.3 29.7 491 31.2C463.7 32.7 436.3 34.3 409 33.3C381.7 32.3 354.3 28.7 327 26.2C299.7 23.7 272.3 22.3 245.2 24.2C218 26 191 31 163.8 30C136.7 29 109.3 22 82 21C54.7 20 27.3 25 13.7 27.5L0 30Z" fill="#e79f35"></path><path d="M0 51L13.7 51C27.3 51 54.7 51 82 51C109.3 51 136.7 51 163.8 51C191 51 218 51 245.2 51C272.3 51 299.7 51 327 51C354.3 51 381.7 51 409 51C436.3 51 463.7 51 491 51C518.3 51 545.7 51 573 51C600.3 51 627.7 51 654.8 51C682 51 709 51 736.2 51C763.3 51 790.7 51 818 51C845.3 51 872.7 51 886.3 51L900 51L900 27L886.3 27.3C872.7 27.7 845.3 28.3 818 30.3C790.7 32.3 763.3 35.7 736.2 35.7C709 35.7 682 32.3 654.8 32.3C627.7 32.3 600.3 35.7 573 37.2C545.7 38.7 518.3 38.3 491 38.5C463.7 38.7 436.3 39.3 409 38.8C381.7 38.3 354.3 36.7 327 34.5C299.7 32.3 272.3 29.7 245.2 30.5C218 31.3 191 35.7 163.8 35.5C136.7 35.3 109.3 30.7 82 30.2C54.7 29.7 27.3 33.3 13.7 35.2L0 37Z" fill="#be8128"></path></svg>