<svg id="visual" viewBox="0 0 1920 540" width="1920" height="540" xmlns="http://www.w3.org/2000/svg" xmlns:xlink="http://www.w3.org/1999/xlink" version="1.1"><path d="M0 114L160 127.5C320 141 640 168 960 160C1280 152 1600 109 1760 87.5L1920 66L1920 0L1760 0C1600 0 1280 0 960 0C640 0 320 0 160 0L0 0Z" fill="#111111"></path><path d="M0 152L160 162C320 172 640 192 960 181.2C1280 170.3 1600 128.7 1760 107.8L1920 87L1920 64L1760 85.5C1600 107 1280 150 960 158C640 166 320 139 160 125.5L0 112Z" fill="#1a1823"></path><path d="M0 179L160 187.2C320 195.3 640 211.7 960 201.8C1280 192 1600 156 1760 138L1920 120L1920 85L1760 105.8C1600 126.7 1280 168.3 960 179.2C640 190 320 170 160 160L0 150Z" fill="#211e36"></path><path d="M0 179L160 191.7C320 204.3 640 229.7 960 230.7C1280 231.7 1600 208.3 1760 196.7L1920 185L1920 118L1760 136C1600 154 1280 190 960 199.8C640 209.7 320 193.3 160 185.2L0 177Z" fill="#272449"></path><path d="M0 352L160 344.8C320 337.7 640 323.3 960 321.5C1280 319.7 1600 330.3 1760 335.7L1920 341L1920 183L1760 194.7C1600 206.3 1280 229.7 960 228.7C640 227.7 320 202.3 160 189.7L0 177Z" fill="#2d2a5e"></path><path d="M0 406L160 395.2C320 384.3 640 362.7 960 358.2C1280 353.7 1600 366.3 1760 372.7L1920 379L1920 339L1760 333.7C1600 328.3 1280 317.7 960 319.5C640 321.3 320 335.7 160 342.8L0 350Z" fill="#323173"></path><path d="M0 406L160 402.3C320 398.7 640 391.3 960 388.7C1280 386 1600 388 1760 389L1920 390L1920 377L1760 370.7C1600 364.3 1280 351.7 960 356.2C640 360.7 320 382.3 160 393.2L0 404Z" fill="#363789"></path><path d="M0 406L160 404.2C320 402.3 640 398.7 960 403.2C1280 407.7 1600 420.3 1760 426.7L1920 433L1920 388L1760 387C1600 386 1280 384 960 386.7C640 389.3 320 396.7 160 400.3L0 404Z" fill="#3a3ea0"></path><path d="M0 417L160 420.5C320 424 640 431 960 435.5C1280 440 1600 442 1760 443L1920 444L1920 431L1760 424.7C1600 418.3 1280 405.7 960 401.2C640 396.7 320 400.3 160 402.2L0 404Z" fill="#3d44b7"></path><path d="M0 444L160 447.5C320 451 640 458 960 461.5C1280 465 1600 465 1760 465L1920 465L1920 442L1760 441C1600 440 1280 438 960 433.5C640 429 320 422 160 418.5L0 415Z" fill="#3f4bce"></path><path d="M0 498L160 502.5C320 507 640 516 960 522.3C1280 528.7 1600 532.3 1760 534.2L1920 536L1920 463L1760 463C1600 463 1280 463 960 459.5C640 456 320 449 160 445.5L0 442Z" fill="#4152e6"></path><path d="M0 541L160 541C320 541 640 541 960 541C1280 541 1600 541 1760 541L1920 541L1920 534L1760 532.2C1600 530.3 1280 526.7 960 520.3C640 514 320 505 160 500.5L0 496Z" fill="#4259ff"></path></svg>