<svg id="visual" viewBox="0 0 900 600" width="900" height="600" xmlns="http://www.w3.org/2000/svg" xmlns:xlink="http://www.w3.org/1999/xlink" version="1.1"><path d="M0 109L75 125C150 141 300 173 450 179C600 185 750 165 825 155L900 145L900 0L825 0C750 0 600 0 450 0C300 0 150 0 75 0L0 0Z" fill="#818eff"></path><path d="M0 241L75 244C150 247 300 253 450 238C600 223 750 187 825 169L900 151L900 143L825 153C750 163 600 183 450 177C300 171 150 139 75 123L0 107Z" fill="#6a79ff"></path><path d="M0 391L75 403C150 415 300 439 450 421C600 403 750 343 825 313L900 283L900 149L825 167C750 185 600 221 450 236C300 251 150 245 75 242L0 239Z" fill="#5064ff"></path><path d="M0 481L75 493C150 505 300 529 450 525C600 521 750 489 825 473L900 457L900 281L825 311C750 341 600 401 450 419C300 437 150 413 75 401L0 389Z" fill="#3e53f2"></path><path d="M0 595L75 592C150 589 300 583 450 567C600 551 750 525 825 512L900 499L900 455L825 471C750 487 600 519 450 523C300 527 150 503 75 491L0 479Z" fill="#3747d9"></path><path d="M0 601L75 601C150 601 300 601 450 601C600 601 750 601 825 601L900 601L900 497L825 510C750 523 600 549 450 565C300 581 150 587 75 590L0 593Z" fill="#2f3cc0"></path></svg>