<svg id="visual" viewBox="0 0 900 600" width="900" height="600" xmlns="http://www.w3.org/2000/svg" xmlns:xlink="http://www.w3.org/1999/xlink" version="1.1"><path d="M0 31L30 47C60 63 120 95 180 123C240 151 300 175 360 163C420 151 480 103 540 96C600 89 660 123 720 174C780 225 840 293 870 327L900 361L900 0L870 0C840 0 780 0 720 0C660 0 600 0 540 0C480 0 420 0 360 0C300 0 240 0 180 0C120 0 60 0 30 0L0 0Z" fill="#818eff"></path><path d="M0 133L30 140C60 147 120 161 180 190C240 219 300 263 360 263C420 263 480 219 540 212C600 205 660 235 720 270C780 305 840 345 870 365L900 385L900 359L870 325C840 291 780 223 720 172C660 121 600 87 540 94C480 101 420 149 360 161C300 173 240 149 180 121C120 93 60 61 30 45L0 29Z" fill="#6a79ff"></path><path d="M0 235L30 248C60 261 120 287 180 313C240 339 300 365 360 358C420 351 480 311 540 308C600 305 660 339 720 374C780 409 840 445 870 463L900 481L900 383L870 363C840 343 780 303 720 268C660 233 600 203 540 210C480 217 420 261 360 261C300 261 240 217 180 188C120 159 60 145 30 138L0 131Z" fill="#5064ff"></path><path d="M0 301L30 312C60 323 120 345 180 376C240 407 300 447 360 437C420 427 480 367 540 359C600 351 660 395 720 424C780 453 840 467 870 474L900 481L900 479L870 461C840 443 780 407 720 372C660 337 600 303 540 306C480 309 420 349 360 356C300 363 240 337 180 311C120 285 60 259 30 246L0 233Z" fill="#3e53f2"></path><path d="M0 325L30 352C60 379 120 433 180 473C240 513 300 539 360 529C420 519 480 473 540 455C600 437 660 447 720 462C780 477 840 497 870 507L900 517L900 479L870 472C840 465 780 451 720 422C660 393 600 349 540 357C480 365 420 425 360 435C300 445 240 405 180 374C120 343 60 321 30 310L0 299Z" fill="#3747d9"></path><path d="M0 601L30 601C60 601 120 601 180 601C240 601 300 601 360 601C420 601 480 601 540 601C600 601 660 601 720 601C780 601 840 601 870 601L900 601L900 515L870 505C840 495 780 475 720 460C660 445 600 435 540 453C480 471 420 517 360 527C300 537 240 511 180 471C120 431 60 377 30 350L0 323Z" fill="#2f3cc0"></path></svg>