<svg id="visual" viewBox="0 0 1920 1080" width="1920" height="1080" xmlns="http://www.w3.org/2000/svg" xmlns:xlink="http://www.w3.org/1999/xlink" version="1.1"><path d="M0 627L160 646.8C320 666.7 640 706.3 960 607.3C1280 508.3 1600 270.7 1760 151.8L1920 33L1920 0L1760 0C1600 0 1280 0 960 0C640 0 320 0 160 0L0 0Z" fill="#818eff"></path><path d="M0 638L160 670.5C320 703 640 768 960 730.2C1280 692.3 1600 551.7 1760 481.3L1920 411L1920 31L1760 149.8C1600 268.7 1280 506.3 960 605.3C640 704.3 320 664.7 160 644.8L0 625Z" fill="#596bff"></path><path d="M0 746L160 782C320 818 640 890 960 884.7C1280 879.3 1600 796.7 1760 755.3L1920 714L1920 409L1760 479.3C1600 549.7 1280 690.3 960 728.2C640 766 320 701 160 668.5L0 636Z" fill="#3c4fea"></path><path d="M0 1081L160 1081C320 1081 640 1081 960 1081C1280 1081 1600 1081 1760 1081L1920 1081L1920 712L1760 753.3C1600 794.7 1280 877.3 960 882.7C640 888 320 816 160 780L0 744Z" fill="#2f3cc0"></path></svg>