<svg id="visual" viewBox="0 0 1920 1080" width="1920" height="1080" xmlns="http://www.w3.org/2000/svg" xmlns:xlink="http://www.w3.org/1999/xlink" version="1.1"><path d="M0 55L960 0L1920 44L1920 0L960 0L0 0Z" fill="#818eff"></path><path d="M0 87L960 109L1920 98L1920 42L960 0L0 53Z" fill="#7785ff"></path><path d="M0 152L960 120L1920 152L1920 96L960 107L0 85Z" fill="#6c7bff"></path><path d="M0 152L960 120L1920 174L1920 150L960 118L0 150Z" fill="#6172ff"></path><path d="M0 228L960 185L1920 185L1920 172L960 118L0 150Z" fill="#5568ff"></path><path d="M0 347L960 368L1920 336L1920 183L960 183L0 226Z" fill="#495eff"></path><path d="M0 411L960 368L1920 444L1920 334L960 366L0 345Z" fill="#4056f9"></path><path d="M0 757L960 692L1920 800L1920 442L960 366L0 409Z" fill="#3d51ed"></path><path d="M0 887L960 757L1920 854L1920 798L960 690L0 755Z" fill="#3a4ce2"></path><path d="M0 941L960 822L1920 1005L1920 852L960 755L0 885Z" fill="#3646d6"></path><path d="M0 984L960 1038L1920 1005L1920 1003L960 820L0 939Z" fill="#3341cb"></path><path d="M0 1081L960 1081L1920 1081L1920 1003L960 1036L0 982Z" fill="#2f3cc0"></path></svg>