<svg id="visual" viewBox="0 0 1920 540" width="1920" height="540" xmlns="http://www.w3.org/2000/svg" xmlns:xlink="http://www.w3.org/1999/xlink" version="1.1"><path d="M0 0L160 0C320 0 640 0 960 4.7C1280 9.3 1600 18.7 1760 23.3L1920 28L1920 0L1760 0C1600 0 1280 0 960 0C640 0 320 0 160 0L0 0Z" fill="#111111"></path><path d="M0 39L160 36.3C320 33.7 640 28.3 960 27.3C1280 26.3 1600 29.7 1760 31.3L1920 33L1920 26L1760 21.7C1600 17.3 1280 8.7 960 4.3C640 0 320 0 160 0L0 0Z" fill="#1a1823"></path><path d="M0 66L160 69.5C320 73 640 80 960 79C1280 78 1600 69 1760 64.5L1920 60L1920 31L1760 29.3C1600 27.7 1280 24.3 960 25.3C640 26.3 320 31.7 160 34.3L0 37Z" fill="#211e36"></path><path d="M0 104L160 104C320 104 640 104 960 99.5C1280 95 1600 86 1760 81.5L1920 77L1920 58L1760 62.5C1600 67 1280 76 960 77C640 78 320 71 160 67.5L0 64Z" fill="#272449"></path><path d="M0 158L160 151.7C320 145.3 640 132.7 960 127.2C1280 121.7 1600 123.3 1760 124.2L1920 125L1920 75L1760 79.5C1600 84 1280 93 960 97.5C640 102 320 102 160 102L0 102Z" fill="#2d2a5e"></path><path d="M0 168L160 176.2C320 184.3 640 200.7 960 209.7C1280 218.7 1600 220.3 1760 221.2L1920 222L1920 123L1760 122.2C1600 121.3 1280 119.7 960 125.2C640 130.7 320 143.3 160 149.7L0 156Z" fill="#323173"></path><path d="M0 201L160 206.3C320 211.7 640 222.3 960 234C1280 245.7 1600 258.3 1760 264.7L1920 271L1920 220L1760 219.2C1600 218.3 1280 216.7 960 207.7C640 198.7 320 182.3 160 174.2L0 166Z" fill="#363789"></path><path d="M0 222L160 249C320 276 640 330 960 353.5C1280 377 1600 370 1760 366.5L1920 363L1920 269L1760 262.7C1600 256.3 1280 243.7 960 232C640 220.3 320 209.7 160 204.3L0 199Z" fill="#3a3ea0"></path><path d="M0 255L160 283.8C320 312.7 640 370.3 960 394.7C1280 419 1600 410 1760 405.5L1920 401L1920 361L1760 364.5C1600 368 1280 375 960 351.5C640 328 320 274 160 247L0 220Z" fill="#3d44b7"></path><path d="M0 260L160 288C320 316 640 372 960 402.7C1280 433.3 1600 438.7 1760 441.3L1920 444L1920 399L1760 403.5C1600 408 1280 417 960 392.7C640 368.3 320 310.7 160 281.8L0 253Z" fill="#3f4bce"></path><path d="M0 503L160 500.3C320 497.7 640 492.3 960 496.8C1280 501.3 1600 515.7 1760 522.8L1920 530L1920 442L1760 439.3C1600 436.7 1280 431.3 960 400.7C640 370 320 314 160 286L0 258Z" fill="#4152e6"></path><path d="M0 541L160 541C320 541 640 541 960 541C1280 541 1600 541 1760 541L1920 541L1920 528L1760 520.8C1600 513.7 1280 499.3 960 494.8C640 490.3 320 495.7 160 498.3L0 501Z" fill="#4259ff"></path></svg>