<svg width="9405" height="1213" viewBox="0 0 9405 1213" fill="none" xmlns="http://www.w3.org/2000/svg">
<rect y="123" width="967" height="967" rx="250" fill="#4259FF"/>
<rect x="325" y="601" width="318" height="337" rx="71" fill="#F0F0F0"/>
<circle cx="484" cy="523" r="247" fill="white"/>
<path d="M1120 960V244H1372C1406 244 1437.67 249.667 1467 261C1497 271.667 1523 287 1545 307C1567 327 1584.33 351 1597 379C1609.67 406.333 1616 436.667 1616 470C1616 504 1609.67 535 1597 563C1584.33 590.333 1567 614 1545 634C1523 654 1497 669.667 1467 681C1437.67 691.667 1406 697 1372 697H1255V960H1120ZM1374 569C1409.33 569 1436 559 1454 539C1472 519 1481 496 1481 470C1481 457.333 1478.67 445 1474 433C1470 421 1463.33 410.667 1454 402C1445.33 392.667 1434.33 385.333 1421 380C1407.67 374.667 1392 372 1374 372H1255V569H1374ZM1768.8 399C1757.46 399 1746.46 397 1735.8 393C1725.8 388.333 1716.8 382.333 1708.8 375C1701.46 367 1695.46 358 1690.8 348C1686.8 338 1684.8 327 1684.8 315C1684.8 303 1686.8 292 1690.8 282C1695.46 272 1701.46 263.333 1708.8 256C1716.8 248 1725.8 242 1735.8 238C1746.46 233.333 1757.46 231 1768.8 231C1792.13 231 1812.13 239.333 1828.8 256C1845.46 272 1853.8 291.667 1853.8 315C1853.8 338.333 1845.46 358.333 1828.8 375C1812.13 391 1792.13 399 1768.8 399ZM1703.8 960V470H1834.8V960H1703.8ZM2076.59 711L1908.59 470H2063.59L2152.59 606H2159.59L2243.59 470H2403.59L2231.59 711L2403.59 960H2249.59L2157.59 820H2150.59L2061.59 960H1906.59L2076.59 711ZM2917.61 842C2894.94 882 2864.28 914.333 2825.61 939C2787.61 963.667 2740.94 976 2685.61 976C2648.28 976 2613.61 969.667 2581.61 957C2550.28 943.667 2522.94 925.333 2499.61 902C2476.28 878.667 2457.94 851.333 2444.61 820C2431.94 788 2425.61 753 2425.61 715C2425.61 679.667 2431.94 646.333 2444.61 615C2457.28 583 2474.94 555.333 2497.61 532C2520.28 508 2546.94 489 2577.61 475C2608.94 461 2643.28 454 2680.61 454C2719.94 454 2754.94 460.667 2785.61 474C2816.28 486.667 2841.94 504.667 2862.61 528C2883.28 550.667 2898.94 577.667 2909.61 609C2920.28 640.333 2925.61 674.333 2925.61 711C2925.61 715.667 2925.61 719.667 2925.61 723C2924.94 727 2924.61 730.667 2924.61 734C2923.94 737.333 2923.61 741 2923.61 745H2554.61C2557.28 765 2562.61 782.333 2570.61 797C2579.28 811 2589.61 823 2601.61 833C2614.28 842.333 2627.94 849.333 2642.61 854C2657.28 858 2672.28 860 2687.61 860C2717.61 860 2742.28 853.333 2761.61 840C2781.61 826 2797.28 808.667 2808.61 788L2917.61 842ZM2798.61 652C2797.94 643.333 2794.94 633.667 2789.61 623C2784.94 612.333 2777.61 602.333 2767.61 593C2758.28 583.667 2746.28 576 2731.61 570C2717.61 564 2700.61 561 2680.61 561C2652.61 561 2627.94 569 2606.61 585C2585.28 601 2570.28 623.333 2561.61 652H2798.61ZM3009.27 960V244H3140.27V960H3009.27ZM3375.44 534H3383.44C3398.77 509.333 3419.44 490 3445.44 476C3471.44 461.333 3501.1 454 3534.44 454C3565.1 454 3592.1 459 3615.44 469C3638.77 479 3657.77 493.333 3672.44 512C3687.77 530 3699.1 552 3706.44 578C3714.44 603.333 3718.44 631.667 3718.44 663V960H3587.44V679C3587.44 643.667 3579.44 617.667 3563.44 601C3548.1 583.667 3525.44 575 3495.44 575C3477.44 575 3461.44 579 3447.44 587C3434.1 594.333 3422.44 604.667 3412.44 618C3403.1 630.667 3395.77 646 3390.44 664C3385.77 681.333 3383.44 700 3383.44 720V960H3252.44V470H3375.44V534ZM4290.66 842C4267.99 882 4237.32 914.333 4198.66 939C4160.66 963.667 4113.99 976 4058.66 976C4021.32 976 3986.66 969.667 3954.66 957C3923.32 943.667 3895.99 925.333 3872.66 902C3849.32 878.667 3830.99 851.333 3817.66 820C3804.99 788 3798.66 753 3798.66 715C3798.66 679.667 3804.99 646.333 3817.66 615C3830.32 583 3847.99 555.333 3870.66 532C3893.32 508 3919.99 489 3950.66 475C3981.99 461 4016.32 454 4053.66 454C4092.99 454 4127.99 460.667 4158.66 474C4189.32 486.667 4214.99 504.667 4235.66 528C4256.32 550.667 4271.99 577.667 4282.66 609C4293.32 640.333 4298.66 674.333 4298.66 711C4298.66 715.667 4298.66 719.667 4298.66 723C4297.99 727 4297.66 730.667 4297.66 734C4296.99 737.333 4296.66 741 4296.66 745H3927.66C3930.32 765 3935.66 782.333 3943.66 797C3952.32 811 3962.66 823 3974.66 833C3987.32 842.333 4000.99 849.333 4015.66 854C4030.32 858 4045.32 860 4060.66 860C4090.66 860 4115.32 853.333 4134.66 840C4154.66 826 4170.32 808.667 4181.66 788L4290.66 842ZM4171.66 652C4170.99 643.333 4167.99 633.667 4162.66 623C4157.99 612.333 4150.66 602.333 4140.66 593C4131.32 583.667 4119.32 576 4104.66 570C4090.66 564 4073.66 561 4053.66 561C4025.66 561 4000.99 569 3979.66 585C3958.32 601 3943.32 623.333 3934.66 652H4171.66ZM4581.2 976C4549.2 976 4520.54 972 4495.2 964C4470.54 956 4448.87 945.667 4430.2 933C4412.2 919.667 4396.87 904.667 4384.2 888C4371.54 870.667 4361.87 853.333 4355.2 836L4472.2 786C4483.54 811.333 4498.54 830.333 4517.2 843C4536.54 855 4557.87 861 4581.2 861C4605.2 861 4624.2 856.667 4638.2 848C4652.2 839.333 4659.2 829 4659.2 817C4659.2 803.667 4653.2 793 4641.2 785C4629.87 776.333 4609.87 768.667 4581.2 762L4512.2 747C4496.87 743.667 4480.87 738.333 4464.2 731C4448.2 723.667 4433.54 714.333 4420.2 703C4406.87 691.667 4395.87 678 4387.2 662C4378.54 646 4374.2 627.333 4374.2 606C4374.2 582 4379.2 560.667 4389.2 542C4399.87 523.333 4414.2 507.667 4432.2 495C4450.2 481.667 4471.2 471.667 4495.2 465C4519.87 457.667 4546.2 454 4574.2 454C4620.87 454 4662.54 463.333 4699.2 482C4735.87 500 4762.87 529 4780.2 569L4667.2 615C4657.87 595.667 4644.2 581.667 4626.2 573C4608.2 564.333 4590.2 560 4572.2 560C4553.54 560 4537.2 564 4523.2 572C4509.2 579.333 4502.2 589 4502.2 601C4502.2 612.333 4507.87 621.333 4519.2 628C4531.2 634.667 4547.2 640.667 4567.2 646L4642.2 664C4692.2 676 4729.2 695.333 4753.2 722C4777.87 748 4790.2 779 4790.2 815C4790.2 836.333 4785.2 856.667 4775.2 876C4765.2 895.333 4750.87 912.667 4732.2 928C4714.2 942.667 4692.2 954.333 4666.2 963C4640.87 971.667 4612.54 976 4581.2 976ZM4919.72 582H4833.72V470H4919.72V320H5050.72V470H5170.72V582H5050.72V772C5050.72 783.333 5051.72 794 5053.72 804C5056.39 813.333 5061.05 821.333 5067.72 828C5077.05 838.667 5090.39 844 5107.72 844C5119.05 844 5128.05 843 5134.72 841C5141.39 838.333 5147.72 835 5153.72 831L5190.72 946C5175.39 953.333 5158.72 958.667 5140.72 962C5123.39 966 5104.05 968 5082.72 968C5058.05 968 5035.72 964.333 5015.72 957C4996.39 949 4980.05 938.333 4966.72 925C4935.39 895 4919.72 852.333 4919.72 797V582ZM5944.81 769C5944.81 831.667 5921.81 882 5875.81 920C5829.15 957.333 5772.48 976 5705.81 976C5646.48 976 5594.15 958.667 5548.81 924C5503.48 889.333 5472.15 842 5454.81 782L5542.81 746C5548.81 767.333 5557.15 786.667 5567.81 804C5578.48 821.333 5590.81 836.333 5604.81 849C5619.48 861 5635.48 870.667 5652.81 878C5670.15 884.667 5688.48 888 5707.81 888C5749.81 888 5784.15 877.333 5810.81 856C5837.48 834 5850.81 805 5850.81 769C5850.81 739 5839.81 713.333 5817.81 692C5797.15 671.333 5758.48 651.333 5701.81 632C5644.48 611.333 5608.81 597.333 5594.81 590C5518.81 551.333 5480.81 494.333 5480.81 419C5480.81 366.333 5501.81 321.333 5543.81 284C5586.48 246.667 5638.81 228 5700.81 228C5755.48 228 5802.81 242 5842.81 270C5882.81 297.333 5909.48 331.667 5922.81 373L5836.81 409C5828.81 382.333 5812.81 360.333 5788.81 343C5765.48 325 5736.81 316 5702.81 316C5666.81 316 5636.48 326 5611.81 346C5587.15 364.667 5574.81 389 5574.81 419C5574.81 443.667 5584.48 465 5603.81 483C5625.15 501 5671.48 522.333 5742.81 547C5815.48 571.667 5867.15 602 5897.81 638C5929.15 673.333 5944.81 717 5944.81 769ZM6011.55 715C6011.55 639.667 6035.21 577.333 6082.55 528C6130.55 478.667 6190.88 454 6263.55 454C6336.21 454 6396.21 478.667 6443.55 528C6491.55 577.333 6515.55 639.667 6515.55 715C6515.55 791 6491.55 853.333 6443.55 902C6396.21 951.333 6336.21 976 6263.55 976C6190.88 976 6130.55 951.333 6082.55 902C6035.21 852.667 6011.55 790.333 6011.55 715ZM6103.55 715C6103.55 767.667 6118.88 810.333 6149.55 843C6180.21 875.667 6218.21 892 6263.55 892C6308.88 892 6346.88 875.667 6377.55 843C6408.21 810.333 6423.55 767.667 6423.55 715C6423.55 663 6408.21 620.667 6377.55 588C6346.21 554.667 6308.21 538 6263.55 538C6218.88 538 6180.88 554.667 6149.55 588C6118.88 620.667 6103.55 663 6103.55 715ZM6686.23 244V960H6594.23V244H6686.23ZM7228.34 960H7140.34V892H7136.34C7122.34 916 7100.67 936 7071.34 952C7042.67 968 7012.67 976 6981.34 976C6921.34 976 6875 959 6842.34 925C6810.34 890.333 6794.34 841.333 6794.34 778V470H6886.34V772C6888.34 852 6928.67 892 7007.34 892C7044 892 7074.67 877.333 7099.34 848C7124 818 7136.34 782.333 7136.34 741V470H7228.34V960ZM7539.21 968C7499.21 968 7465.88 955.667 7439.21 931C7413.21 906.333 7399.88 872 7399.21 828V554H7313.21V470H7399.21V320H7491.21V470H7611.21V554H7491.21V798C7491.21 830.667 7497.54 853 7510.21 865C7522.88 876.333 7537.21 882 7553.21 882C7560.54 882 7567.54 881.333 7574.21 880C7581.54 878 7588.21 875.667 7594.21 873L7623.21 955C7599.21 963.667 7571.21 968 7539.21 968ZM7822.61 301C7822.61 319 7816.28 334.333 7803.61 347C7790.94 359.667 7775.61 366 7757.61 366C7739.61 366 7724.28 359.667 7711.61 347C7698.94 334.333 7692.61 319 7692.61 301C7692.61 283 7698.94 267.667 7711.61 255C7724.28 242.333 7739.61 236 7757.61 236C7775.61 236 7790.94 242.333 7803.61 255C7816.28 267.667 7822.61 283 7822.61 301ZM7803.61 470V960H7711.61V470H7803.61ZM7890.45 715C7890.45 639.667 7914.12 577.333 7961.45 528C8009.45 478.667 8069.79 454 8142.45 454C8215.12 454 8275.12 478.667 8322.45 528C8370.45 577.333 8394.45 639.667 8394.45 715C8394.45 791 8370.45 853.333 8322.45 902C8275.12 951.333 8215.12 976 8142.45 976C8069.79 976 8009.45 951.333 7961.45 902C7914.12 852.667 7890.45 790.333 7890.45 715ZM7982.45 715C7982.45 767.667 7997.79 810.333 8028.45 843C8059.12 875.667 8097.12 892 8142.45 892C8187.79 892 8225.79 875.667 8256.45 843C8287.12 810.333 8302.45 767.667 8302.45 715C8302.45 663 8287.12 620.667 8256.45 588C8225.12 554.667 8187.12 538 8142.45 538C8097.79 538 8059.79 554.667 8028.45 588C7997.79 620.667 7982.45 663 7982.45 715ZM8468.26 470H8556.26V538H8560.26C8574.26 514 8595.59 494 8624.26 478C8653.59 462 8683.92 454 8715.26 454C8775.26 454 8821.26 471.333 8853.26 506C8885.92 540 8902.26 588.667 8902.26 652V960H8810.26V658C8808.26 578 8767.92 538 8689.26 538C8652.59 538 8621.92 553 8597.26 583C8572.59 612.333 8560.26 647.667 8560.26 689V960H8468.26V470ZM9380.37 824C9380.37 866.667 9361.7 902.667 9324.37 932C9287.03 961.333 9240.03 976 9183.37 976C9134.03 976 9090.7 963.333 9053.37 938C9016.03 912 8989.37 878 8973.37 836L9055.37 801C9067.37 830.333 9084.7 853.333 9107.37 870C9130.7 886 9156.03 894 9183.37 894C9212.7 894 9237.03 887.667 9256.37 875C9276.37 862.333 9286.37 847.333 9286.37 830C9286.37 798.667 9262.37 775.667 9214.37 761L9130.37 740C9035.03 716 8987.37 670 8987.37 602C8987.37 557.333 9005.37 521.667 9041.37 495C9078.03 467.667 9124.7 454 9181.37 454C9224.7 454 9263.7 464.333 9298.37 485C9333.7 505.667 9358.37 533.333 9372.37 568L9290.37 602C9281.03 581.333 9265.7 565.333 9244.37 554C9223.7 542 9200.37 536 9174.37 536C9150.37 536 9128.7 542 9109.37 554C9090.7 566 9081.37 580.667 9081.37 598C9081.37 626 9107.7 646 9160.37 658L9234.37 677C9331.7 701 9380.37 750 9380.37 824Z" fill="#141212"/>
</svg>
