<svg width="8016" height="1213" viewBox="0 0 8016 1213" fill="none" xmlns="http://www.w3.org/2000/svg">
<rect y="123" width="967" height="967" rx="250" fill="white"/>
<path d="M1119 960V244H1371C1405 244 1436.67 249.667 1466 261C1496 271.667 1522 287 1544 307C1566 327 1583.33 351 1596 379C1608.67 406.333 1615 436.667 1615 470C1615 504 1608.67 535 1596 563C1583.33 590.333 1566 614 1544 634C1522 654 1496 669.667 1466 681C1436.67 691.667 1405 697 1371 697H1254V960H1119ZM1373 569C1408.33 569 1435 559 1453 539C1471 519 1480 496 1480 470C1480 457.333 1477.67 445 1473 433C1469 421 1462.33 410.667 1453 402C1444.33 392.667 1433.33 385.333 1420 380C1406.67 374.667 1391 372 1373 372H1254V569H1373ZM1767.8 399C1756.46 399 1745.46 397 1734.8 393C1724.8 388.333 1715.8 382.333 1707.8 375C1700.46 367 1694.46 358 1689.8 348C1685.8 338 1683.8 327 1683.8 315C1683.8 303 1685.8 292 1689.8 282C1694.46 272 1700.46 263.333 1707.8 256C1715.8 248 1724.8 242 1734.8 238C1745.46 233.333 1756.46 231 1767.8 231C1791.13 231 1811.13 239.333 1827.8 256C1844.46 272 1852.8 291.667 1852.8 315C1852.8 338.333 1844.46 358.333 1827.8 375C1811.13 391 1791.13 399 1767.8 399ZM1702.8 960V470H1833.8V960H1702.8ZM2075.59 711L1907.59 470H2062.59L2151.59 606H2158.59L2242.59 470H2402.59L2230.59 711L2402.59 960H2248.59L2156.59 820H2149.59L2060.59 960H1905.59L2075.59 711ZM2916.61 842C2893.94 882 2863.28 914.333 2824.61 939C2786.61 963.667 2739.94 976 2684.61 976C2647.28 976 2612.61 969.667 2580.61 957C2549.28 943.667 2521.94 925.333 2498.61 902C2475.28 878.667 2456.94 851.333 2443.61 820C2430.94 788 2424.61 753 2424.61 715C2424.61 679.667 2430.94 646.333 2443.61 615C2456.28 583 2473.94 555.333 2496.61 532C2519.28 508 2545.94 489 2576.61 475C2607.94 461 2642.28 454 2679.61 454C2718.94 454 2753.94 460.667 2784.61 474C2815.28 486.667 2840.94 504.667 2861.61 528C2882.28 550.667 2897.94 577.667 2908.61 609C2919.28 640.333 2924.61 674.333 2924.61 711C2924.61 715.667 2924.61 719.667 2924.61 723C2923.94 727 2923.61 730.667 2923.61 734C2922.94 737.333 2922.61 741 2922.61 745H2553.61C2556.28 765 2561.61 782.333 2569.61 797C2578.28 811 2588.61 823 2600.61 833C2613.28 842.333 2626.94 849.333 2641.61 854C2656.28 858 2671.28 860 2686.61 860C2716.61 860 2741.28 853.333 2760.61 840C2780.61 826 2796.28 808.667 2807.61 788L2916.61 842ZM2797.61 652C2796.94 643.333 2793.94 633.667 2788.61 623C2783.94 612.333 2776.61 602.333 2766.61 593C2757.28 583.667 2745.28 576 2730.61 570C2716.61 564 2699.61 561 2679.61 561C2651.61 561 2626.94 569 2605.61 585C2584.28 601 2569.28 623.333 2560.61 652H2797.61ZM3008.27 960V244H3139.27V960H3008.27ZM3374.44 534H3382.44C3397.77 509.333 3418.44 490 3444.44 476C3470.44 461.333 3500.1 454 3533.44 454C3564.1 454 3591.1 459 3614.44 469C3637.77 479 3656.77 493.333 3671.44 512C3686.77 530 3698.1 552 3705.44 578C3713.44 603.333 3717.44 631.667 3717.44 663V960H3586.44V679C3586.44 643.667 3578.44 617.667 3562.44 601C3547.1 583.667 3524.44 575 3494.44 575C3476.44 575 3460.44 579 3446.44 587C3433.1 594.333 3421.44 604.667 3411.44 618C3402.1 630.667 3394.77 646 3389.44 664C3384.77 681.333 3382.44 700 3382.44 720V960H3251.44V470H3374.44V534ZM4289.66 842C4266.99 882 4236.32 914.333 4197.66 939C4159.66 963.667 4112.99 976 4057.66 976C4020.32 976 3985.66 969.667 3953.66 957C3922.32 943.667 3894.99 925.333 3871.66 902C3848.32 878.667 3829.99 851.333 3816.66 820C3803.99 788 3797.66 753 3797.66 715C3797.66 679.667 3803.99 646.333 3816.66 615C3829.32 583 3846.99 555.333 3869.66 532C3892.32 508 3918.99 489 3949.66 475C3980.99 461 4015.32 454 4052.66 454C4091.99 454 4126.99 460.667 4157.66 474C4188.32 486.667 4213.99 504.667 4234.66 528C4255.32 550.667 4270.99 577.667 4281.66 609C4292.32 640.333 4297.66 674.333 4297.66 711C4297.66 715.667 4297.66 719.667 4297.66 723C4296.99 727 4296.66 730.667 4296.66 734C4295.99 737.333 4295.66 741 4295.66 745H3926.66C3929.32 765 3934.66 782.333 3942.66 797C3951.32 811 3961.66 823 3973.66 833C3986.32 842.333 3999.99 849.333 4014.66 854C4029.32 858 4044.32 860 4059.66 860C4089.66 860 4114.32 853.333 4133.66 840C4153.66 826 4169.32 808.667 4180.66 788L4289.66 842ZM4170.66 652C4169.99 643.333 4166.99 633.667 4161.66 623C4156.99 612.333 4149.66 602.333 4139.66 593C4130.32 583.667 4118.32 576 4103.66 570C4089.66 564 4072.66 561 4052.66 561C4024.66 561 3999.99 569 3978.66 585C3957.32 601 3942.32 623.333 3933.66 652H4170.66ZM4580.2 976C4548.2 976 4519.54 972 4494.2 964C4469.54 956 4447.87 945.667 4429.2 933C4411.2 919.667 4395.87 904.667 4383.2 888C4370.54 870.667 4360.87 853.333 4354.2 836L4471.2 786C4482.54 811.333 4497.54 830.333 4516.2 843C4535.54 855 4556.87 861 4580.2 861C4604.2 861 4623.2 856.667 4637.2 848C4651.2 839.333 4658.2 829 4658.2 817C4658.2 803.667 4652.2 793 4640.2 785C4628.87 776.333 4608.87 768.667 4580.2 762L4511.2 747C4495.87 743.667 4479.87 738.333 4463.2 731C4447.2 723.667 4432.54 714.333 4419.2 703C4405.87 691.667 4394.87 678 4386.2 662C4377.54 646 4373.2 627.333 4373.2 606C4373.2 582 4378.2 560.667 4388.2 542C4398.87 523.333 4413.2 507.667 4431.2 495C4449.2 481.667 4470.2 471.667 4494.2 465C4518.87 457.667 4545.2 454 4573.2 454C4619.87 454 4661.54 463.333 4698.2 482C4734.87 500 4761.87 529 4779.2 569L4666.2 615C4656.87 595.667 4643.2 581.667 4625.2 573C4607.2 564.333 4589.2 560 4571.2 560C4552.54 560 4536.2 564 4522.2 572C4508.2 579.333 4501.2 589 4501.2 601C4501.2 612.333 4506.87 621.333 4518.2 628C4530.2 634.667 4546.2 640.667 4566.2 646L4641.2 664C4691.2 676 4728.2 695.333 4752.2 722C4776.87 748 4789.2 779 4789.2 815C4789.2 836.333 4784.2 856.667 4774.2 876C4764.2 895.333 4749.87 912.667 4731.2 928C4713.2 942.667 4691.2 954.333 4665.2 963C4639.87 971.667 4611.54 976 4580.2 976ZM4918.72 582H4832.72V470H4918.72V320H5049.72V470H5169.72V582H5049.72V772C5049.72 783.333 5050.72 794 5052.72 804C5055.39 813.333 5060.05 821.333 5066.72 828C5076.05 838.667 5089.39 844 5106.72 844C5118.05 844 5127.05 843 5133.72 841C5140.39 838.333 5146.72 835 5152.72 831L5189.72 946C5174.39 953.333 5157.72 958.667 5139.72 962C5122.39 966 5103.05 968 5081.72 968C5057.05 968 5034.72 964.333 5014.72 957C4995.39 949 4979.05 938.333 4965.72 925C4934.39 895 4918.72 852.333 4918.72 797V582ZM5838.81 976C5732.81 976 5644.15 940.333 5572.81 869C5502.15 797.667 5466.81 708.667 5466.81 602C5466.81 495.333 5502.15 406.667 5572.81 336C5643.48 264 5732.15 228 5838.81 228C5946.81 228 6034.48 267 6101.81 345L6035.81 409C5984.48 347 5918.81 316 5838.81 316C5759.48 316 5693.15 342.667 5639.81 396C5587.15 448.667 5560.81 517.333 5560.81 602C5560.81 686.667 5587.15 755.333 5639.81 808C5693.15 861.333 5759.48 888 5838.81 888C5922.15 888 5994.48 853 6055.81 783L6122.81 848C6088.81 888.667 6047.15 920.333 5997.81 943C5948.48 965 5895.48 976 5838.81 976ZM6296.56 244V960H6204.56V244H6296.56ZM6375.78 715C6375.78 639.667 6399.45 577.333 6446.78 528C6494.78 478.667 6555.11 454 6627.78 454C6700.45 454 6760.45 478.667 6807.78 528C6855.78 577.333 6879.78 639.667 6879.78 715C6879.78 791 6855.78 853.333 6807.78 902C6760.45 951.333 6700.45 976 6627.78 976C6555.11 976 6494.78 951.333 6446.78 902C6399.45 852.667 6375.78 790.333 6375.78 715ZM6467.78 715C6467.78 767.667 6483.11 810.333 6513.78 843C6544.45 875.667 6582.45 892 6627.78 892C6673.11 892 6711.11 875.667 6741.78 843C6772.45 810.333 6787.78 767.667 6787.78 715C6787.78 663 6772.45 620.667 6741.78 588C6710.45 554.667 6672.45 538 6627.78 538C6583.11 538 6545.11 554.667 6513.78 588C6483.11 620.667 6467.78 663 6467.78 715ZM7388.47 960H7300.47V892H7296.47C7282.47 916 7260.8 936 7231.47 952C7202.8 968 7172.8 976 7141.47 976C7081.47 976 7035.14 959 7002.47 925C6970.47 890.333 6954.47 841.333 6954.47 778V470H7046.47V772C7048.47 852 7088.8 892 7167.47 892C7204.14 892 7234.8 877.333 7259.47 848C7284.14 818 7296.47 782.333 7296.47 741V470H7388.47V960ZM7715.58 892C7760.91 892 7797.91 875.667 7826.58 843C7856.58 810.333 7871.58 767.667 7871.58 715C7871.58 663.667 7856.58 621.333 7826.58 588C7797.24 554.667 7760.24 538 7715.58 538C7671.58 538 7634.58 554.667 7604.58 588C7574.58 621.333 7559.58 663.667 7559.58 715C7559.58 767 7574.58 809.333 7604.58 842C7634.58 875.333 7671.58 892 7715.58 892ZM7700.58 976C7636.58 976 7581.58 950.667 7535.58 900C7490.24 848.667 7467.58 787 7467.58 715C7467.58 643 7490.24 581.333 7535.58 530C7581.58 479.333 7636.58 454 7700.58 454C7736.58 454 7769.24 461.667 7798.58 477C7828.58 492.333 7851.58 512.667 7867.58 538H7871.58L7867.58 470V244H7959.58V960H7871.58V892H7867.58C7851.58 917.333 7828.58 937.667 7798.58 953C7769.24 968.333 7736.58 976 7700.58 976Z" fill="white"/>
<path d="M130.016 625.141C128.496 734.544 236.015 736.443 236.015 736.443H653.932C653.932 736.443 742.834 748.597 749.673 659.329C756.511 570.061 653.932 565.121 653.932 565.121C653.932 565.121 675.967 525.992 623.158 478.13C570.348 430.268 513.36 457.617 513.36 457.617C513.36 457.617 480.686 363.409 369.368 383.922C258.05 404.435 256.531 515.738 256.531 515.738C256.531 515.738 131.536 515.738 130.016 625.141Z" fill="#3247DB"/>
<path d="M218.016 720.141C216.496 829.544 324.015 831.443 324.015 831.443H741.932C741.932 831.443 830.834 843.597 837.673 754.329C844.511 665.061 741.932 660.121 741.932 660.121C741.932 660.121 763.967 620.992 711.158 573.13C658.348 525.268 601.36 552.617 601.36 552.617C601.36 552.617 568.686 458.409 457.368 478.922C346.05 499.435 344.531 610.738 344.531 610.738C344.531 610.738 219.536 610.738 218.016 720.141Z" fill="#4259FF"/>
</svg>
