<svg width="9404" height="1213" viewBox="0 0 9404 1213" fill="none" xmlns="http://www.w3.org/2000/svg">
<rect y="123" width="967" height="967" rx="250" fill="white"/>
<rect x="325" y="601" width="318" height="337" rx="71" fill="#3247DB"/>
<circle cx="484" cy="523" r="247" fill="#4259FF"/>
<path d="M1119 960V244H1371C1405 244 1436.67 249.667 1466 261C1496 271.667 1522 287 1544 307C1566 327 1583.33 351 1596 379C1608.67 406.333 1615 436.667 1615 470C1615 504 1608.67 535 1596 563C1583.33 590.333 1566 614 1544 634C1522 654 1496 669.667 1466 681C1436.67 691.667 1405 697 1371 697H1254V960H1119ZM1373 569C1408.33 569 1435 559 1453 539C1471 519 1480 496 1480 470C1480 457.333 1477.67 445 1473 433C1469 421 1462.33 410.667 1453 402C1444.33 392.667 1433.33 385.333 1420 380C1406.67 374.667 1391 372 1373 372H1254V569H1373ZM1767.8 399C1756.46 399 1745.46 397 1734.8 393C1724.8 388.333 1715.8 382.333 1707.8 375C1700.46 367 1694.46 358 1689.8 348C1685.8 338 1683.8 327 1683.8 315C1683.8 303 1685.8 292 1689.8 282C1694.46 272 1700.46 263.333 1707.8 256C1715.8 248 1724.8 242 1734.8 238C1745.46 233.333 1756.46 231 1767.8 231C1791.13 231 1811.13 239.333 1827.8 256C1844.46 272 1852.8 291.667 1852.8 315C1852.8 338.333 1844.46 358.333 1827.8 375C1811.13 391 1791.13 399 1767.8 399ZM1702.8 960V470H1833.8V960H1702.8ZM2075.59 711L1907.59 470H2062.59L2151.59 606H2158.59L2242.59 470H2402.59L2230.59 711L2402.59 960H2248.59L2156.59 820H2149.59L2060.59 960H1905.59L2075.59 711ZM2916.61 842C2893.94 882 2863.28 914.333 2824.61 939C2786.61 963.667 2739.94 976 2684.61 976C2647.28 976 2612.61 969.667 2580.61 957C2549.28 943.667 2521.94 925.333 2498.61 902C2475.28 878.667 2456.94 851.333 2443.61 820C2430.94 788 2424.61 753 2424.61 715C2424.61 679.667 2430.94 646.333 2443.61 615C2456.28 583 2473.94 555.333 2496.61 532C2519.28 508 2545.94 489 2576.61 475C2607.94 461 2642.28 454 2679.61 454C2718.94 454 2753.94 460.667 2784.61 474C2815.28 486.667 2840.94 504.667 2861.61 528C2882.28 550.667 2897.94 577.667 2908.61 609C2919.28 640.333 2924.61 674.333 2924.61 711C2924.61 715.667 2924.61 719.667 2924.61 723C2923.94 727 2923.61 730.667 2923.61 734C2922.94 737.333 2922.61 741 2922.61 745H2553.61C2556.28 765 2561.61 782.333 2569.61 797C2578.28 811 2588.61 823 2600.61 833C2613.28 842.333 2626.94 849.333 2641.61 854C2656.28 858 2671.28 860 2686.61 860C2716.61 860 2741.28 853.333 2760.61 840C2780.61 826 2796.28 808.667 2807.61 788L2916.61 842ZM2797.61 652C2796.94 643.333 2793.94 633.667 2788.61 623C2783.94 612.333 2776.61 602.333 2766.61 593C2757.28 583.667 2745.28 576 2730.61 570C2716.61 564 2699.61 561 2679.61 561C2651.61 561 2626.94 569 2605.61 585C2584.28 601 2569.28 623.333 2560.61 652H2797.61ZM3008.27 960V244H3139.27V960H3008.27ZM3374.44 534H3382.44C3397.77 509.333 3418.44 490 3444.44 476C3470.44 461.333 3500.1 454 3533.44 454C3564.1 454 3591.1 459 3614.44 469C3637.77 479 3656.77 493.333 3671.44 512C3686.77 530 3698.1 552 3705.44 578C3713.44 603.333 3717.44 631.667 3717.44 663V960H3586.44V679C3586.44 643.667 3578.44 617.667 3562.44 601C3547.1 583.667 3524.44 575 3494.44 575C3476.44 575 3460.44 579 3446.44 587C3433.1 594.333 3421.44 604.667 3411.44 618C3402.1 630.667 3394.77 646 3389.44 664C3384.77 681.333 3382.44 700 3382.44 720V960H3251.44V470H3374.44V534ZM4289.66 842C4266.99 882 4236.32 914.333 4197.66 939C4159.66 963.667 4112.99 976 4057.66 976C4020.32 976 3985.66 969.667 3953.66 957C3922.32 943.667 3894.99 925.333 3871.66 902C3848.32 878.667 3829.99 851.333 3816.66 820C3803.99 788 3797.66 753 3797.66 715C3797.66 679.667 3803.99 646.333 3816.66 615C3829.32 583 3846.99 555.333 3869.66 532C3892.32 508 3918.99 489 3949.66 475C3980.99 461 4015.32 454 4052.66 454C4091.99 454 4126.99 460.667 4157.66 474C4188.32 486.667 4213.99 504.667 4234.66 528C4255.32 550.667 4270.99 577.667 4281.66 609C4292.32 640.333 4297.66 674.333 4297.66 711C4297.66 715.667 4297.66 719.667 4297.66 723C4296.99 727 4296.66 730.667 4296.66 734C4295.99 737.333 4295.66 741 4295.66 745H3926.66C3929.32 765 3934.66 782.333 3942.66 797C3951.32 811 3961.66 823 3973.66 833C3986.32 842.333 3999.99 849.333 4014.66 854C4029.32 858 4044.32 860 4059.66 860C4089.66 860 4114.32 853.333 4133.66 840C4153.66 826 4169.32 808.667 4180.66 788L4289.66 842ZM4170.66 652C4169.99 643.333 4166.99 633.667 4161.66 623C4156.99 612.333 4149.66 602.333 4139.66 593C4130.32 583.667 4118.32 576 4103.66 570C4089.66 564 4072.66 561 4052.66 561C4024.66 561 3999.99 569 3978.66 585C3957.32 601 3942.32 623.333 3933.66 652H4170.66ZM4580.2 976C4548.2 976 4519.54 972 4494.2 964C4469.54 956 4447.87 945.667 4429.2 933C4411.2 919.667 4395.87 904.667 4383.2 888C4370.54 870.667 4360.87 853.333 4354.2 836L4471.2 786C4482.54 811.333 4497.54 830.333 4516.2 843C4535.54 855 4556.87 861 4580.2 861C4604.2 861 4623.2 856.667 4637.2 848C4651.2 839.333 4658.2 829 4658.2 817C4658.2 803.667 4652.2 793 4640.2 785C4628.87 776.333 4608.87 768.667 4580.2 762L4511.2 747C4495.87 743.667 4479.87 738.333 4463.2 731C4447.2 723.667 4432.54 714.333 4419.2 703C4405.87 691.667 4394.87 678 4386.2 662C4377.54 646 4373.2 627.333 4373.2 606C4373.2 582 4378.2 560.667 4388.2 542C4398.87 523.333 4413.2 507.667 4431.2 495C4449.2 481.667 4470.2 471.667 4494.2 465C4518.87 457.667 4545.2 454 4573.2 454C4619.87 454 4661.54 463.333 4698.2 482C4734.87 500 4761.87 529 4779.2 569L4666.2 615C4656.87 595.667 4643.2 581.667 4625.2 573C4607.2 564.333 4589.2 560 4571.2 560C4552.54 560 4536.2 564 4522.2 572C4508.2 579.333 4501.2 589 4501.2 601C4501.2 612.333 4506.87 621.333 4518.2 628C4530.2 634.667 4546.2 640.667 4566.2 646L4641.2 664C4691.2 676 4728.2 695.333 4752.2 722C4776.87 748 4789.2 779 4789.2 815C4789.2 836.333 4784.2 856.667 4774.2 876C4764.2 895.333 4749.87 912.667 4731.2 928C4713.2 942.667 4691.2 954.333 4665.2 963C4639.87 971.667 4611.54 976 4580.2 976ZM4918.72 582H4832.72V470H4918.72V320H5049.72V470H5169.72V582H5049.72V772C5049.72 783.333 5050.72 794 5052.72 804C5055.39 813.333 5060.05 821.333 5066.72 828C5076.05 838.667 5089.39 844 5106.72 844C5118.05 844 5127.05 843 5133.72 841C5140.39 838.333 5146.72 835 5152.72 831L5189.72 946C5174.39 953.333 5157.72 958.667 5139.72 962C5122.39 966 5103.05 968 5081.72 968C5057.05 968 5034.72 964.333 5014.72 957C4995.39 949 4979.05 938.333 4965.72 925C4934.39 895 4918.72 852.333 4918.72 797V582ZM5943.81 769C5943.81 831.667 5920.81 882 5874.81 920C5828.15 957.333 5771.48 976 5704.81 976C5645.48 976 5593.15 958.667 5547.81 924C5502.48 889.333 5471.15 842 5453.81 782L5541.81 746C5547.81 767.333 5556.15 786.667 5566.81 804C5577.48 821.333 5589.81 836.333 5603.81 849C5618.48 861 5634.48 870.667 5651.81 878C5669.15 884.667 5687.48 888 5706.81 888C5748.81 888 5783.15 877.333 5809.81 856C5836.48 834 5849.81 805 5849.81 769C5849.81 739 5838.81 713.333 5816.81 692C5796.15 671.333 5757.48 651.333 5700.81 632C5643.48 611.333 5607.81 597.333 5593.81 590C5517.81 551.333 5479.81 494.333 5479.81 419C5479.81 366.333 5500.81 321.333 5542.81 284C5585.48 246.667 5637.81 228 5699.81 228C5754.48 228 5801.81 242 5841.81 270C5881.81 297.333 5908.48 331.667 5921.81 373L5835.81 409C5827.81 382.333 5811.81 360.333 5787.81 343C5764.48 325 5735.81 316 5701.81 316C5665.81 316 5635.48 326 5610.81 346C5586.15 364.667 5573.81 389 5573.81 419C5573.81 443.667 5583.48 465 5602.81 483C5624.15 501 5670.48 522.333 5741.81 547C5814.48 571.667 5866.15 602 5896.81 638C5928.15 673.333 5943.81 717 5943.81 769ZM6010.55 715C6010.55 639.667 6034.21 577.333 6081.55 528C6129.55 478.667 6189.88 454 6262.55 454C6335.21 454 6395.21 478.667 6442.55 528C6490.55 577.333 6514.55 639.667 6514.55 715C6514.55 791 6490.55 853.333 6442.55 902C6395.21 951.333 6335.21 976 6262.55 976C6189.88 976 6129.55 951.333 6081.55 902C6034.21 852.667 6010.55 790.333 6010.55 715ZM6102.55 715C6102.55 767.667 6117.88 810.333 6148.55 843C6179.21 875.667 6217.21 892 6262.55 892C6307.88 892 6345.88 875.667 6376.55 843C6407.21 810.333 6422.55 767.667 6422.55 715C6422.55 663 6407.21 620.667 6376.55 588C6345.21 554.667 6307.21 538 6262.55 538C6217.88 538 6179.88 554.667 6148.55 588C6117.88 620.667 6102.55 663 6102.55 715ZM6685.23 244V960H6593.23V244H6685.23ZM7227.34 960H7139.34V892H7135.34C7121.34 916 7099.67 936 7070.34 952C7041.67 968 7011.67 976 6980.34 976C6920.34 976 6874 959 6841.34 925C6809.34 890.333 6793.34 841.333 6793.34 778V470H6885.34V772C6887.34 852 6927.67 892 7006.34 892C7043 892 7073.67 877.333 7098.34 848C7123 818 7135.34 782.333 7135.34 741V470H7227.34V960ZM7538.21 968C7498.21 968 7464.88 955.667 7438.21 931C7412.21 906.333 7398.88 872 7398.21 828V554H7312.21V470H7398.21V320H7490.21V470H7610.21V554H7490.21V798C7490.21 830.667 7496.54 853 7509.21 865C7521.88 876.333 7536.21 882 7552.21 882C7559.54 882 7566.54 881.333 7573.21 880C7580.54 878 7587.21 875.667 7593.21 873L7622.21 955C7598.21 963.667 7570.21 968 7538.21 968ZM7821.61 301C7821.61 319 7815.28 334.333 7802.61 347C7789.94 359.667 7774.61 366 7756.61 366C7738.61 366 7723.28 359.667 7710.61 347C7697.94 334.333 7691.61 319 7691.61 301C7691.61 283 7697.94 267.667 7710.61 255C7723.28 242.333 7738.61 236 7756.61 236C7774.61 236 7789.94 242.333 7802.61 255C7815.28 267.667 7821.61 283 7821.61 301ZM7802.61 470V960H7710.61V470H7802.61ZM7889.45 715C7889.45 639.667 7913.12 577.333 7960.45 528C8008.45 478.667 8068.79 454 8141.45 454C8214.12 454 8274.12 478.667 8321.45 528C8369.45 577.333 8393.45 639.667 8393.45 715C8393.45 791 8369.45 853.333 8321.45 902C8274.12 951.333 8214.12 976 8141.45 976C8068.79 976 8008.45 951.333 7960.45 902C7913.12 852.667 7889.45 790.333 7889.45 715ZM7981.45 715C7981.45 767.667 7996.79 810.333 8027.45 843C8058.12 875.667 8096.12 892 8141.45 892C8186.79 892 8224.79 875.667 8255.45 843C8286.12 810.333 8301.45 767.667 8301.45 715C8301.45 663 8286.12 620.667 8255.45 588C8224.12 554.667 8186.12 538 8141.45 538C8096.79 538 8058.79 554.667 8027.45 588C7996.79 620.667 7981.45 663 7981.45 715ZM8467.26 470H8555.26V538H8559.26C8573.26 514 8594.59 494 8623.26 478C8652.59 462 8682.92 454 8714.26 454C8774.26 454 8820.26 471.333 8852.26 506C8884.92 540 8901.26 588.667 8901.26 652V960H8809.26V658C8807.26 578 8766.92 538 8688.26 538C8651.59 538 8620.92 553 8596.26 583C8571.59 612.333 8559.26 647.667 8559.26 689V960H8467.26V470ZM9379.37 824C9379.37 866.667 9360.7 902.667 9323.37 932C9286.03 961.333 9239.03 976 9182.37 976C9133.03 976 9089.7 963.333 9052.37 938C9015.03 912 8988.37 878 8972.37 836L9054.37 801C9066.37 830.333 9083.7 853.333 9106.37 870C9129.7 886 9155.03 894 9182.37 894C9211.7 894 9236.03 887.667 9255.37 875C9275.37 862.333 9285.37 847.333 9285.37 830C9285.37 798.667 9261.37 775.667 9213.37 761L9129.37 740C9034.03 716 8986.37 670 8986.37 602C8986.37 557.333 9004.37 521.667 9040.37 495C9077.03 467.667 9123.7 454 9180.37 454C9223.7 454 9262.7 464.333 9297.37 485C9332.7 505.667 9357.37 533.333 9371.37 568L9289.37 602C9280.03 581.333 9264.7 565.333 9243.37 554C9222.7 542 9199.37 536 9173.37 536C9149.37 536 9127.7 542 9108.37 554C9089.7 566 9080.37 580.667 9080.37 598C9080.37 626 9106.7 646 9159.37 658L9233.37 677C9330.7 701 9379.37 750 9379.37 824Z" fill="white"/>
</svg>
