<svg width="8063" height="1213" viewBox="0 0 8063 1213" fill="none" xmlns="http://www.w3.org/2000/svg">
<rect y="123" width="967" height="967" rx="250" fill="white"/>
<path d="M1119 960V244H1371C1405 244 1436.67 249.667 1466 261C1496 271.667 1522 287 1544 307C1566 327 1583.33 351 1596 379C1608.67 406.333 1615 436.667 1615 470C1615 504 1608.67 535 1596 563C1583.33 590.333 1566 614 1544 634C1522 654 1496 669.667 1466 681C1436.67 691.667 1405 697 1371 697H1254V960H1119ZM1373 569C1408.33 569 1435 559 1453 539C1471 519 1480 496 1480 470C1480 457.333 1477.67 445 1473 433C1469 421 1462.33 410.667 1453 402C1444.33 392.667 1433.33 385.333 1420 380C1406.67 374.667 1391 372 1373 372H1254V569H1373ZM1767.8 399C1756.46 399 1745.46 397 1734.8 393C1724.8 388.333 1715.8 382.333 1707.8 375C1700.46 367 1694.46 358 1689.8 348C1685.8 338 1683.8 327 1683.8 315C1683.8 303 1685.8 292 1689.8 282C1694.46 272 1700.46 263.333 1707.8 256C1715.8 248 1724.8 242 1734.8 238C1745.46 233.333 1756.46 231 1767.8 231C1791.13 231 1811.13 239.333 1827.8 256C1844.46 272 1852.8 291.667 1852.8 315C1852.8 338.333 1844.46 358.333 1827.8 375C1811.13 391 1791.13 399 1767.8 399ZM1702.8 960V470H1833.8V960H1702.8ZM2075.59 711L1907.59 470H2062.59L2151.59 606H2158.59L2242.59 470H2402.59L2230.59 711L2402.59 960H2248.59L2156.59 820H2149.59L2060.59 960H1905.59L2075.59 711ZM2916.61 842C2893.94 882 2863.28 914.333 2824.61 939C2786.61 963.667 2739.94 976 2684.61 976C2647.28 976 2612.61 969.667 2580.61 957C2549.28 943.667 2521.94 925.333 2498.61 902C2475.28 878.667 2456.94 851.333 2443.61 820C2430.94 788 2424.61 753 2424.61 715C2424.61 679.667 2430.94 646.333 2443.61 615C2456.28 583 2473.94 555.333 2496.61 532C2519.28 508 2545.94 489 2576.61 475C2607.94 461 2642.28 454 2679.61 454C2718.94 454 2753.94 460.667 2784.61 474C2815.28 486.667 2840.94 504.667 2861.61 528C2882.28 550.667 2897.94 577.667 2908.61 609C2919.28 640.333 2924.61 674.333 2924.61 711C2924.61 715.667 2924.61 719.667 2924.61 723C2923.94 727 2923.61 730.667 2923.61 734C2922.94 737.333 2922.61 741 2922.61 745H2553.61C2556.28 765 2561.61 782.333 2569.61 797C2578.28 811 2588.61 823 2600.61 833C2613.28 842.333 2626.94 849.333 2641.61 854C2656.28 858 2671.28 860 2686.61 860C2716.61 860 2741.28 853.333 2760.61 840C2780.61 826 2796.28 808.667 2807.61 788L2916.61 842ZM2797.61 652C2796.94 643.333 2793.94 633.667 2788.61 623C2783.94 612.333 2776.61 602.333 2766.61 593C2757.28 583.667 2745.28 576 2730.61 570C2716.61 564 2699.61 561 2679.61 561C2651.61 561 2626.94 569 2605.61 585C2584.28 601 2569.28 623.333 2560.61 652H2797.61ZM3008.27 960V244H3139.27V960H3008.27ZM3374.44 534H3382.44C3397.77 509.333 3418.44 490 3444.44 476C3470.44 461.333 3500.1 454 3533.44 454C3564.1 454 3591.1 459 3614.44 469C3637.77 479 3656.77 493.333 3671.44 512C3686.77 530 3698.1 552 3705.44 578C3713.44 603.333 3717.44 631.667 3717.44 663V960H3586.44V679C3586.44 643.667 3578.44 617.667 3562.44 601C3547.1 583.667 3524.44 575 3494.44 575C3476.44 575 3460.44 579 3446.44 587C3433.1 594.333 3421.44 604.667 3411.44 618C3402.1 630.667 3394.77 646 3389.44 664C3384.77 681.333 3382.44 700 3382.44 720V960H3251.44V470H3374.44V534ZM4289.66 842C4266.99 882 4236.32 914.333 4197.66 939C4159.66 963.667 4112.99 976 4057.66 976C4020.32 976 3985.66 969.667 3953.66 957C3922.32 943.667 3894.99 925.333 3871.66 902C3848.32 878.667 3829.99 851.333 3816.66 820C3803.99 788 3797.66 753 3797.66 715C3797.66 679.667 3803.99 646.333 3816.66 615C3829.32 583 3846.99 555.333 3869.66 532C3892.32 508 3918.99 489 3949.66 475C3980.99 461 4015.32 454 4052.66 454C4091.99 454 4126.99 460.667 4157.66 474C4188.32 486.667 4213.99 504.667 4234.66 528C4255.32 550.667 4270.99 577.667 4281.66 609C4292.32 640.333 4297.66 674.333 4297.66 711C4297.66 715.667 4297.66 719.667 4297.66 723C4296.99 727 4296.66 730.667 4296.66 734C4295.99 737.333 4295.66 741 4295.66 745H3926.66C3929.32 765 3934.66 782.333 3942.66 797C3951.32 811 3961.66 823 3973.66 833C3986.32 842.333 3999.99 849.333 4014.66 854C4029.32 858 4044.32 860 4059.66 860C4089.66 860 4114.32 853.333 4133.66 840C4153.66 826 4169.32 808.667 4180.66 788L4289.66 842ZM4170.66 652C4169.99 643.333 4166.99 633.667 4161.66 623C4156.99 612.333 4149.66 602.333 4139.66 593C4130.32 583.667 4118.32 576 4103.66 570C4089.66 564 4072.66 561 4052.66 561C4024.66 561 3999.99 569 3978.66 585C3957.32 601 3942.32 623.333 3933.66 652H4170.66ZM4580.2 976C4548.2 976 4519.54 972 4494.2 964C4469.54 956 4447.87 945.667 4429.2 933C4411.2 919.667 4395.87 904.667 4383.2 888C4370.54 870.667 4360.87 853.333 4354.2 836L4471.2 786C4482.54 811.333 4497.54 830.333 4516.2 843C4535.54 855 4556.87 861 4580.2 861C4604.2 861 4623.2 856.667 4637.2 848C4651.2 839.333 4658.2 829 4658.2 817C4658.2 803.667 4652.2 793 4640.2 785C4628.87 776.333 4608.87 768.667 4580.2 762L4511.2 747C4495.87 743.667 4479.87 738.333 4463.2 731C4447.2 723.667 4432.54 714.333 4419.2 703C4405.87 691.667 4394.87 678 4386.2 662C4377.54 646 4373.2 627.333 4373.2 606C4373.2 582 4378.2 560.667 4388.2 542C4398.87 523.333 4413.2 507.667 4431.2 495C4449.2 481.667 4470.2 471.667 4494.2 465C4518.87 457.667 4545.2 454 4573.2 454C4619.87 454 4661.54 463.333 4698.2 482C4734.87 500 4761.87 529 4779.2 569L4666.2 615C4656.87 595.667 4643.2 581.667 4625.2 573C4607.2 564.333 4589.2 560 4571.2 560C4552.54 560 4536.2 564 4522.2 572C4508.2 579.333 4501.2 589 4501.2 601C4501.2 612.333 4506.87 621.333 4518.2 628C4530.2 634.667 4546.2 640.667 4566.2 646L4641.2 664C4691.2 676 4728.2 695.333 4752.2 722C4776.87 748 4789.2 779 4789.2 815C4789.2 836.333 4784.2 856.667 4774.2 876C4764.2 895.333 4749.87 912.667 4731.2 928C4713.2 942.667 4691.2 954.333 4665.2 963C4639.87 971.667 4611.54 976 4580.2 976ZM4918.72 582H4832.72V470H4918.72V320H5049.72V470H5169.72V582H5049.72V772C5049.72 783.333 5050.72 794 5052.72 804C5055.39 813.333 5060.05 821.333 5066.72 828C5076.05 838.667 5089.39 844 5106.72 844C5118.05 844 5127.05 843 5133.72 841C5140.39 838.333 5146.72 835 5152.72 831L5189.72 946C5174.39 953.333 5157.72 958.667 5139.72 962C5122.39 966 5103.05 968 5081.72 968C5057.05 968 5034.72 964.333 5014.72 957C4995.39 949 4979.05 938.333 4965.72 925C4934.39 895 4918.72 852.333 4918.72 797V582ZM5501.81 960V244H5720.81C5830.15 244 5917.81 277 5983.81 343C6050.48 409 6083.81 495.333 6083.81 602C6083.81 709.333 6050.48 796 5983.81 862C5917.81 927.333 5830.15 960 5720.81 960H5501.81ZM5593.81 332V872H5720.81C5804.15 872 5869.81 848.333 5917.81 801C5965.81 753 5989.81 686.667 5989.81 602C5989.81 518 5965.81 452 5917.81 404C5869.81 356 5804.15 332 5720.81 332H5593.81ZM6249.69 960H6157.69V470H6245.69V550H6249.69C6259.02 524 6278.02 502 6306.69 484C6336.02 465.333 6364.69 456 6392.69 456C6419.35 456 6442.02 460 6460.69 468L6432.69 557C6421.35 552.333 6403.35 550 6378.69 550C6344.02 550 6313.69 564 6287.69 592C6262.35 620 6249.69 652.667 6249.69 690V960ZM6462.7 715C6462.7 639.667 6486.36 577.333 6533.7 528C6581.7 478.667 6642.03 454 6714.7 454C6787.36 454 6847.36 478.667 6894.7 528C6942.7 577.333 6966.7 639.667 6966.7 715C6966.7 791 6942.7 853.333 6894.7 902C6847.36 951.333 6787.36 976 6714.7 976C6642.03 976 6581.7 951.333 6533.7 902C6486.36 852.667 6462.7 790.333 6462.7 715ZM6554.7 715C6554.7 767.667 6570.03 810.333 6600.7 843C6631.36 875.667 6669.36 892 6714.7 892C6760.03 892 6798.03 875.667 6828.7 843C6859.36 810.333 6874.7 767.667 6874.7 715C6874.7 663 6859.36 620.667 6828.7 588C6797.36 554.667 6759.36 538 6714.7 538C6670.03 538 6632.03 554.667 6600.7 588C6570.03 620.667 6554.7 663 6554.7 715ZM7040.5 470H7128.5V538H7132.5C7146.5 514 7167.83 494 7196.5 478C7225.83 462 7256.17 454 7287.5 454C7347.5 454 7393.5 471.333 7425.5 506C7458.17 540 7474.5 588.667 7474.5 652V960H7382.5V658C7380.5 578 7340.17 538 7261.5 538C7224.83 538 7194.17 553 7169.5 583C7144.83 612.333 7132.5 647.667 7132.5 689V960H7040.5V470ZM7802.49 976C7730.49 976 7671.16 951.333 7624.49 902C7577.83 852.667 7554.49 790.333 7554.49 715C7554.49 640.333 7577.16 578.333 7622.49 529C7667.83 479 7725.83 454 7796.49 454C7869.16 454 7926.83 477.667 7969.49 525C8012.83 571.667 8034.49 637.333 8034.49 722L8033.49 732H7648.49C7649.83 780 7665.83 818.667 7696.49 848C7727.16 877.333 7763.83 892 7806.49 892C7865.16 892 7911.16 862.667 7944.49 804L8026.49 844C8004.49 885.333 7973.83 917.667 7934.49 941C7895.83 964.333 7851.83 976 7802.49 976ZM7655.49 656H7936.49C7933.83 622 7919.83 594 7894.49 572C7869.83 549.333 7836.49 538 7794.49 538C7759.83 538 7729.83 548.667 7704.49 570C7679.83 591.333 7663.49 620 7655.49 656Z" fill="white"/>
<rect x="165" y="357.75" width="95.802" height="204.638" rx="47.901" transform="rotate(-45 165 357.75)" fill="#4259FF"/>
<rect x="521.826" y="290" width="95.802" height="204.638" rx="47.901" transform="rotate(45 521.826 290)" fill="#4259FF"/>
<rect x="589.568" y="643.25" width="95.802" height="204.638" rx="47.901" transform="rotate(135 589.568 643.25)" fill="#3247DB"/>
<rect x="232.742" y="711" width="95.802" height="204.638" rx="47.901" transform="rotate(-135 232.742 711)" fill="#4259FF"/>
<rect x="802.568" y="855.25" width="95.802" height="204.638" rx="47.901" transform="rotate(135 802.568 855.25)" fill="#3247DB"/>
<rect x="445.742" y="923" width="95.802" height="204.638" rx="47.901" transform="rotate(-135 445.742 923)" fill="#3247DB"/>
<rect x="734.826" y="502" width="95.802" height="204.638" rx="47.901" transform="rotate(45 734.826 502)" fill="#3247DB"/>
</svg>
